<svg width="70" height="70" viewBox="0 0 70 70" fill="none" xmlns="http://www.w3.org/2000/svg">
<mask id="mask0_525_14064" style="mask-type:alpha" maskUnits="userSpaceOnUse" x="0" y="0" width="70" height="70">
<rect width="70" height="70" fill="#D9D9D9"/>
</mask>
<g mask="url(#mask0_525_14064)">
<path d="M31.3469 53.5205L20.475 43.1663L24.9156 38.9372L31.3469 45.0622L44.2094 32.8122L48.65 37.0413L31.3469 53.5205ZM13.125 64.1663C11.4406 64.1663 9.9987 63.5952 8.79922 62.4528C7.59974 61.3104 7 59.9372 7 58.333V17.4997C7 15.8955 7.59974 14.5222 8.79922 13.3799C9.9987 12.2375 11.4406 11.6663 13.125 11.6663H16.1875V5.83301H22.3125V11.6663H46.8125V5.83301H52.9375V11.6663H56C57.6844 11.6663 59.1263 12.2375 60.3258 13.3799C61.5253 14.5222 62.125 15.8955 62.125 17.4997V58.333C62.125 59.9372 61.5253 61.3104 60.3258 62.4528C59.1263 63.5952 57.6844 64.1663 56 64.1663H13.125ZM13.125 58.333H56V29.1663H13.125V58.333ZM13.125 23.333H56V17.4997H13.125V23.333Z" fill="#63A04B"/>
</g>
</svg>
