<svg width="70" height="70" viewBox="0 0 70 70" fill="none" xmlns="http://www.w3.org/2000/svg">
<mask id="mask0_525_14080" style="mask-type:alpha" maskUnits="userSpaceOnUse" x="0" y="0" width="70" height="70">
<rect width="70" height="70" fill="#D9D9D9"/>
</mask>
<g mask="url(#mask0_525_14080)">
<path d="M34.5625 67.083L25.375 58.333H13.125C11.4406 58.333 9.9987 57.7618 8.79922 56.6195C7.59974 55.4771 7 54.1038 7 52.4997V11.6663C7 10.0622 7.59974 8.68891 8.79922 7.54655C9.9987 6.40419 11.4406 5.83301 13.125 5.83301H56C57.6844 5.83301 59.1263 6.40419 60.3258 7.54655C61.5253 8.68891 62.125 10.0622 62.125 11.6663V52.4997C62.125 54.1038 61.5253 55.4771 60.3258 56.6195C59.1263 57.7618 57.6844 58.333 56 58.333H43.75L34.5625 67.083ZM13.125 52.4997H27.825L34.5625 58.9163L41.3 52.4997H56V11.6663H13.125V52.4997ZM34.4094 48.9997C35.4812 48.9997 36.3872 48.6472 37.1273 47.9424C37.8674 47.2375 38.2375 46.3747 38.2375 45.3538C38.2375 44.333 37.8674 43.4702 37.1273 42.7653C36.3872 42.0604 35.4812 41.708 34.4094 41.708C33.3375 41.708 32.4315 42.0604 31.6914 42.7653C30.9513 43.4702 30.5813 44.333 30.5813 45.3538C30.5813 46.3747 30.9513 47.2375 31.6914 47.9424C32.4315 48.6472 33.3375 48.9997 34.4094 48.9997ZM37.3188 37.7705C37.3188 36.0205 37.5229 34.7323 37.9313 33.9059C38.3396 33.0795 39.2073 32.0344 40.5344 30.7705C42.3208 29.0691 43.5841 27.6472 44.3242 26.5049C45.0643 25.3625 45.4344 24.0622 45.4344 22.6038C45.4344 20.0275 44.5156 17.9493 42.6781 16.3695C40.8406 14.7896 38.3651 13.9997 35.2516 13.9997C32.4443 13.9997 30.0581 14.6559 28.093 15.9684C26.1279 17.2809 24.7625 19.1038 23.9969 21.4372L29.05 23.333C29.4073 22.0205 30.1219 20.9632 31.1938 20.1611C32.2656 19.359 33.5161 18.958 34.9453 18.958C36.3234 18.958 37.4719 19.3104 38.3906 20.0153C39.3094 20.7202 39.7687 21.6559 39.7687 22.8226C39.7687 23.649 39.488 24.524 38.9266 25.4476C38.3651 26.3712 37.4208 27.392 36.0938 28.5101C34.4094 29.9198 33.2482 31.2688 32.6102 32.557C31.9721 33.8452 31.6531 35.583 31.6531 37.7705H37.3188Z" fill="#63A04B"/>
</g>
</svg>
