<svg width="70" height="70" viewBox="0 0 70 70" fill="none" xmlns="http://www.w3.org/2000/svg">
<mask id="mask0_525_14072" style="mask-type:alpha" maskUnits="userSpaceOnUse" x="0" y="0" width="70" height="70">
<rect width="70" height="70" fill="#D9D9D9"/>
</mask>
<g mask="url(#mask0_525_14072)">
<path d="M1 67.0832V49.5832H7.125V20.4165H1V2.9165H19.375V8.74984H50V2.9165H68.375V20.4165H62.25V49.5832H68.375V67.0832H50V61.2498H19.375V67.0832H1ZM19.375 55.4165H50V49.5832H56.125V20.4165H50V14.5832H19.375V20.4165H13.25V49.5832H19.375V55.4165ZM21.825 46.6665L32.2375 20.4165H37.1375L47.55 46.6665H42.8031L40.3531 39.9582H29.175L26.725 46.6665H21.825ZM30.5531 36.1665H38.8219L34.8406 25.229H34.5344L30.5531 36.1665ZM7.125 14.5832H13.25V8.74984H7.125V14.5832ZM56.125 14.5832H62.25V8.74984H56.125V14.5832ZM56.125 61.2498H62.25V55.4165H56.125V61.2498ZM7.125 61.2498H13.25V55.4165H7.125V61.2498Z" fill="#63A04B"/>
</g>
</svg>
