<svg width="70" height="70" viewBox="0 0 70 70" fill="none" xmlns="http://www.w3.org/2000/svg">
<mask id="mask0_525_14089" style="mask-type:alpha" maskUnits="userSpaceOnUse" x="0" y="0" width="70" height="70">
<rect width="70" height="70" fill="#D9D9D9"/>
</mask>
<g mask="url(#mask0_525_14089)">
<path d="M4 58.3337V49.5837H10.125V17.5003C10.125 15.8962 10.7247 14.5229 11.9242 13.3805C13.1237 12.2382 14.5656 11.667 16.25 11.667H62.1875V17.5003H16.25V49.5837H34.625V58.3337H4ZM43.8125 58.3337C42.9448 58.3337 42.2174 58.0541 41.6305 57.4951C41.0435 56.9361 40.75 56.2434 40.75 55.417V26.2503C40.75 25.4239 41.0435 24.7312 41.6305 24.1722C42.2174 23.6132 42.9448 23.3337 43.8125 23.3337H62.1875C63.0552 23.3337 63.7826 23.6132 64.3695 24.1722C64.9565 24.7312 65.25 25.4239 65.25 26.2503V55.417C65.25 56.2434 64.9565 56.9361 64.3695 57.4951C63.7826 58.0541 63.0552 58.3337 62.1875 58.3337H43.8125ZM46.875 49.5837H59.125V29.167H46.875V49.5837Z" fill="#63A04B"/>
</g>
</svg>
