<svg width="24" height="25" viewBox="0 0 24 25" fill="none" xmlns="http://www.w3.org/2000/svg">
<mask id="mask0_199_3105" style="mask-type:alpha" maskUnits="userSpaceOnUse" x="0" y="0" width="24" height="25">
<rect y="0.5" width="24" height="24" fill="#D9D9D9"/>
</mask>
<g mask="url(#mask0_199_3105)">
<path d="M12 15.4748C11.8667 15.4748 11.7375 15.4498 11.6125 15.3998C11.4875 15.3498 11.3834 15.2831 11.3 15.1998L6.70005 10.5998C6.51672 10.4165 6.42505 10.1831 6.42505 9.8998C6.42505 9.61647 6.51672 9.38314 6.70005 9.1998C6.88338 9.01647 7.11672 8.9248 7.40005 8.9248C7.68338 8.9248 7.91672 9.01647 8.10005 9.1998L12 13.0998L15.9 9.1998C16.0834 9.01647 16.3167 8.9248 16.6 8.9248C16.8834 8.9248 17.1167 9.01647 17.3 9.1998C17.4834 9.38314 17.575 9.61647 17.575 9.8998C17.575 10.1831 17.4834 10.4165 17.3 10.5998L12.7 15.1998C12.6 15.2998 12.4917 15.3706 12.375 15.4123C12.2584 15.454 12.1334 15.4748 12 15.4748Z" fill="white"/>
</g>
</svg>
