<svg width="18" height="18" viewBox="0 0 18 18" fill="none" xmlns="http://www.w3.org/2000/svg">
<path d="M5 13V14.25C5 14.4667 5.07083 14.6458 5.2125 14.7875C5.35417 14.9292 5.53333 15 5.75 15C5.96667 15 6.14583 14.9292 6.2875 14.7875C6.42917 14.6458 6.5 14.4667 6.5 14.25V13H7.75C7.96667 13 8.14583 12.9292 8.2875 12.7875C8.42917 12.6458 8.5 12.4667 8.5 12.25C8.5 12.0333 8.42917 11.8542 8.2875 11.7125C8.14583 11.5708 7.96667 11.5 7.75 11.5H6.5V10.25C6.5 10.0333 6.42917 9.85417 6.2875 9.7125C6.14583 9.57083 5.96667 9.5 5.75 9.5C5.53333 9.5 5.35417 9.57083 5.2125 9.7125C5.07083 9.85417 5 10.0333 5 10.25V11.5H3.75C3.53333 11.5 3.35417 11.5708 3.2125 11.7125C3.07083 11.8542 3 12.0333 3 12.25C3 12.4667 3.07083 12.6458 3.2125 12.7875C3.35417 12.9292 3.53333 13 3.75 13H5ZM10.75 14.25H14.25C14.4667 14.25 14.6458 14.1792 14.7875 14.0375C14.9292 13.8958 15 13.7167 15 13.5C15 13.2833 14.9292 13.1042 14.7875 12.9625C14.6458 12.8208 14.4667 12.75 14.25 12.75H10.75C10.5333 12.75 10.3542 12.8208 10.2125 12.9625C10.0708 13.1042 10 13.2833 10 13.5C10 13.7167 10.0708 13.8958 10.2125 14.0375C10.3542 14.1792 10.5333 14.25 10.75 14.25ZM10.75 11.75H14.25C14.4667 11.75 14.6458 11.6792 14.7875 11.5375C14.9292 11.3958 15 11.2167 15 11C15 10.7833 14.9292 10.6042 14.7875 10.4625C14.6458 10.3208 14.4667 10.25 14.25 10.25H10.75C10.5333 10.25 10.3542 10.3208 10.2125 10.4625C10.0708 10.6042 10 10.7833 10 11C10 11.2167 10.0708 11.3958 10.2125 11.5375C10.3542 11.6792 10.5333 11.75 10.75 11.75ZM12.5 6.55L13.375 7.425C13.525 7.575 13.7 7.65 13.9 7.65C14.1 7.65 14.275 7.575 14.425 7.425C14.5583 7.29167 14.6292 7.12083 14.6375 6.9125C14.6458 6.70417 14.5833 6.525 14.45 6.375L13.55 5.45L14.425 4.575C14.575 4.425 14.65 4.25 14.65 4.05C14.65 3.85 14.575 3.675 14.425 3.525C14.275 3.375 14.1 3.3 13.9 3.3C13.7 3.3 13.525 3.375 13.375 3.525L12.5 4.4L11.625 3.525C11.475 3.375 11.3 3.3 11.1 3.3C10.9 3.3 10.725 3.375 10.575 3.525C10.425 3.675 10.35 3.85 10.35 4.05C10.35 4.25 10.425 4.425 10.575 4.575L11.45 5.45L10.55 6.375C10.4167 6.525 10.35 6.7 10.35 6.9C10.35 7.1 10.425 7.275 10.575 7.425C10.725 7.575 10.9 7.65 11.1 7.65C11.3 7.65 11.475 7.575 11.625 7.425L12.5 6.55ZM4 6.2H7.5C7.71667 6.2 7.89583 6.12917 8.0375 5.9875C8.17917 5.84583 8.25 5.66667 8.25 5.45C8.25 5.23333 8.17917 5.05417 8.0375 4.9125C7.89583 4.77083 7.71667 4.7 7.5 4.7H4C3.78333 4.7 3.60417 4.77083 3.4625 4.9125C3.32083 5.05417 3.25 5.23333 3.25 5.45C3.25 5.66667 3.32083 5.84583 3.4625 5.9875C3.60417 6.12917 3.78333 6.2 4 6.2ZM2 18C1.45 18 0.979167 17.8042 0.5875 17.4125C0.195833 17.0208 0 16.55 0 16V2C0 1.45 0.195833 0.979167 0.5875 0.5875C0.979167 0.195833 1.45 0 2 0H16C16.55 0 17.0208 0.195833 17.4125 0.5875C17.8042 0.979167 18 1.45 18 2V16C18 16.55 17.8042 17.0208 17.4125 17.4125C17.0208 17.8042 16.55 18 16 18H2ZM2 16H16V2H2V16Z" fill="#455A64"/>
</svg>
