<svg width="85" height="77" viewBox="0 0 85 77" fill="none" xmlns="http://www.w3.org/2000/svg">
<path d="M42.4994 61.6458C47.7598 61.6458 52.2318 59.8054 55.9155 56.1245C59.5964 52.4408 61.4369 47.9688 61.4369 42.7083C61.4369 37.4479 59.5964 32.9759 55.9155 29.2922C52.2318 25.6113 47.7598 23.7708 42.4994 23.7708C37.2389 23.7708 32.7669 25.6113 29.0832 29.2922C25.4023 32.9759 23.5618 37.4479 23.5618 42.7083C23.5618 47.9688 25.4023 52.4408 29.0832 56.1245C32.7669 59.8054 37.2389 61.6458 42.4994 61.6458ZM37.8702 38.0792L40.6056 32.1875C40.9563 31.416 41.5875 31.0302 42.4994 31.0302C43.4112 31.0302 44.0424 31.416 44.3931 32.1875L47.1285 38.0792L53.0202 40.8146C53.7917 41.1653 54.1775 41.7965 54.1775 42.7083C54.1775 43.6201 53.7917 44.2514 53.0202 44.6021L47.1285 47.3375L44.3931 53.2292C44.0424 54.0007 43.4112 54.3865 42.4994 54.3865C41.5875 54.3865 40.9563 54.0007 40.6056 53.2292L37.8702 47.3375L31.9785 44.6021C31.207 44.2514 30.8212 43.6201 30.8212 42.7083C30.8212 41.7965 31.207 41.1653 31.9785 40.8146L37.8702 38.0792ZM8.83268 76.375C6.5181 76.375 4.53738 75.5516 2.89052 73.9047C1.24085 72.255 0.416016 70.2729 0.416016 67.9583V17.4583C0.416016 15.1438 1.24085 13.163 2.89052 11.5162C4.53738 9.8665 6.5181 9.04167 8.83268 9.04167H22.0889L27.3493 3.36042C28.1209 2.44861 29.0495 1.76406 30.1353 1.30675C31.2238 0.85225 32.3643 0.625 33.5566 0.625H51.4421C52.6344 0.625 53.7749 0.85225 54.8634 1.30675C55.9492 1.76406 56.8778 2.44861 57.6494 3.36042L62.9098 9.04167H76.166C78.4806 9.04167 80.4627 9.8665 82.1124 11.5162C83.7593 13.163 84.5827 15.1438 84.5827 17.4583V67.9583C84.5827 70.2729 83.7593 72.255 82.1124 73.9047C80.4627 75.5516 78.4806 76.375 76.166 76.375H8.83268ZM76.166 67.9583V17.4583H8.83268V67.9583H76.166Z" fill="white"/>
</svg>
