<svg width="20" height="20" viewBox="0 0 20 20" fill="none" xmlns="http://www.w3.org/2000/svg">
<g id="cancel">
<mask id="mask0_1882_47934" style="mask-type:alpha" maskUnits="userSpaceOnUse" x="0" y="0" width="20" height="20">
<rect id="Bounding box" width="20" height="20" fill="#D9D9D9"/>
</mask>
<g mask="url(#mask0_1882_47934)">
<path id="cancel_2" d="M9.99984 11.1667L12.4165 13.5834C12.5693 13.7361 12.7637 13.8125 12.9998 13.8125C13.2359 13.8125 13.4304 13.7361 13.5832 13.5834C13.7359 13.4306 13.8123 13.2361 13.8123 13C13.8123 12.7639 13.7359 12.5695 13.5832 12.4167L11.1665 10L13.5832 7.58335C13.7359 7.43058 13.8123 7.23613 13.8123 7.00002C13.8123 6.76391 13.7359 6.56947 13.5832 6.41669C13.4304 6.26391 13.2359 6.18752 12.9998 6.18752C12.7637 6.18752 12.5693 6.26391 12.4165 6.41669L9.99984 8.83335L7.58317 6.41669C7.43039 6.26391 7.23595 6.18752 6.99984 6.18752C6.76373 6.18752 6.56928 6.26391 6.4165 6.41669C6.26373 6.56947 6.18734 6.76391 6.18734 7.00002C6.18734 7.23613 6.26373 7.43058 6.4165 7.58335L8.83317 10L6.4165 12.4167C6.26373 12.5695 6.18734 12.7639 6.18734 13C6.18734 13.2361 6.26373 13.4306 6.4165 13.5834C6.56928 13.7361 6.76373 13.8125 6.99984 13.8125C7.23595 13.8125 7.43039 13.7361 7.58317 13.5834L9.99984 11.1667ZM9.99984 18.3334C8.84706 18.3334 7.76373 18.1146 6.74984 17.6771C5.73595 17.2396 4.854 16.6459 4.104 15.8959C3.354 15.1459 2.76025 14.2639 2.32275 13.25C1.88525 12.2361 1.6665 11.1528 1.6665 10C1.6665 8.84724 1.88525 7.76391 2.32275 6.75002C2.76025 5.73613 3.354 4.85419 4.104 4.10419C4.854 3.35419 5.73595 2.76044 6.74984 2.32294C7.76373 1.88544 8.84706 1.66669 9.99984 1.66669C11.1526 1.66669 12.2359 1.88544 13.2498 2.32294C14.2637 2.76044 15.1457 3.35419 15.8957 4.10419C16.6457 4.85419 17.2394 5.73613 17.6769 6.75002C18.1144 7.76391 18.3332 8.84724 18.3332 10C18.3332 11.1528 18.1144 12.2361 17.6769 13.25C17.2394 14.2639 16.6457 15.1459 15.8957 15.8959C15.1457 16.6459 14.2637 17.2396 13.2498 17.6771C12.2359 18.1146 11.1526 18.3334 9.99984 18.3334ZM9.99984 16.6667C11.8609 16.6667 13.4373 16.0209 14.729 14.7292C16.0207 13.4375 16.6665 11.8611 16.6665 10C16.6665 8.13891 16.0207 6.56252 14.729 5.27085C13.4373 3.97919 11.8609 3.33335 9.99984 3.33335C8.13873 3.33335 6.56234 3.97919 5.27067 5.27085C3.979 6.56252 3.33317 8.13891 3.33317 10C3.33317 11.8611 3.979 13.4375 5.27067 14.7292C6.56234 16.0209 8.13873 16.6667 9.99984 16.6667Z" fill="#E12021"/>
</g>
</g>
</svg>
