<svg width="20" height="20" viewBox="0 0 20 20" fill="none" xmlns="http://www.w3.org/2000/svg">
<g id="cancel">
<mask id="mask0_3332_19935" style="mask-type:alpha" maskUnits="userSpaceOnUse" x="0" y="0" width="20" height="20">
<rect id="Bounding box" width="20" height="20" fill="#D9D9D9"/>
</mask>
<g mask="url(#mask0_3332_19935)">
<path id="cancel_2" d="M9.99996 11.1667L12.4166 13.5834C12.5694 13.7362 12.7638 13.8126 13 13.8126C13.2361 13.8126 13.4305 13.7362 13.5833 13.5834C13.7361 13.4306 13.8125 13.2362 13.8125 13.0001C13.8125 12.764 13.7361 12.5695 13.5833 12.4167L11.1666 10.0001L13.5833 7.58342C13.7361 7.43064 13.8125 7.23619 13.8125 7.00008C13.8125 6.76397 13.7361 6.56953 13.5833 6.41675C13.4305 6.26397 13.2361 6.18758 13 6.18758C12.7638 6.18758 12.5694 6.26397 12.4166 6.41675L9.99996 8.83342L7.58329 6.41675C7.43052 6.26397 7.23607 6.18758 6.99996 6.18758C6.76385 6.18758 6.5694 6.26397 6.41663 6.41675C6.26385 6.56953 6.18746 6.76397 6.18746 7.00008C6.18746 7.23619 6.26385 7.43064 6.41663 7.58342L8.83329 10.0001L6.41663 12.4167C6.26385 12.5695 6.18746 12.764 6.18746 13.0001C6.18746 13.2362 6.26385 13.4306 6.41663 13.5834C6.5694 13.7362 6.76385 13.8126 6.99996 13.8126C7.23607 13.8126 7.43052 13.7362 7.58329 13.5834L9.99996 11.1667ZM9.99996 18.3334C8.84718 18.3334 7.76385 18.1147 6.74996 17.6772C5.73607 17.2397 4.85413 16.6459 4.10413 15.8959C3.35413 15.1459 2.76038 14.264 2.32288 13.2501C1.88538 12.2362 1.66663 11.1529 1.66663 10.0001C1.66663 8.8473 1.88538 7.76397 2.32288 6.75008C2.76038 5.73619 3.35413 4.85425 4.10413 4.10425C4.85413 3.35425 5.73607 2.7605 6.74996 2.323C7.76385 1.8855 8.84718 1.66675 9.99996 1.66675C11.1527 1.66675 12.2361 1.8855 13.25 2.323C14.2638 2.7605 15.1458 3.35425 15.8958 4.10425C16.6458 4.85425 17.2395 5.73619 17.677 6.75008C18.1145 7.76397 18.3333 8.8473 18.3333 10.0001C18.3333 11.1529 18.1145 12.2362 17.677 13.2501C17.2395 14.264 16.6458 15.1459 15.8958 15.8959C15.1458 16.6459 14.2638 17.2397 13.25 17.6772C12.2361 18.1147 11.1527 18.3334 9.99996 18.3334ZM9.99996 16.6667C11.8611 16.6667 13.4375 16.0209 14.7291 14.7292C16.0208 13.4376 16.6666 11.8612 16.6666 10.0001C16.6666 8.13897 16.0208 6.56258 14.7291 5.27092C13.4375 3.97925 11.8611 3.33341 9.99996 3.33341C8.13885 3.33341 6.56246 3.97925 5.27079 5.27092C3.97913 6.56258 3.33329 8.13897 3.33329 10.0001C3.33329 11.8612 3.97913 13.4376 5.27079 14.7292C6.56246 16.0209 8.13885 16.6667 9.99996 16.6667Z" fill="#607D8B"/>
</g>
</g>
</svg>
