<svg width="17" height="16" viewBox="0 0 17 16" fill="none" xmlns="http://www.w3.org/2000/svg">
<g id="check_circle">
<mask id="mask0_4615_47194" style="mask-type:alpha" maskUnits="userSpaceOnUse" x="0" y="0" width="17" height="16">
<rect id="Bounding box" x="0.834473" width="16" height="16" fill="#D9D9D9"/>
</mask>
<g mask="url(#mask0_4615_47194)">
<path id="check_circle_2" d="M7.90106 9.19967L6.46772 7.76634C6.3455 7.64412 6.18995 7.58301 6.00106 7.58301C5.81217 7.58301 5.65661 7.64412 5.53439 7.76634C5.41217 7.88856 5.35106 8.04412 5.35106 8.23301C5.35106 8.4219 5.41217 8.57745 5.53439 8.69967L7.43439 10.5997C7.56772 10.733 7.72328 10.7997 7.90106 10.7997C8.07884 10.7997 8.23439 10.733 8.36772 10.5997L12.1344 6.83301C12.2566 6.71079 12.3177 6.55523 12.3177 6.36634C12.3177 6.17745 12.2566 6.0219 12.1344 5.89967C12.0122 5.77745 11.8566 5.71634 11.6677 5.71634C11.4788 5.71634 11.3233 5.77745 11.2011 5.89967L7.90106 9.19967ZM8.83439 14.6663C7.91217 14.6663 7.0455 14.4913 6.23439 14.1413C5.42328 13.7913 4.71772 13.3163 4.11772 12.7163C3.51772 12.1163 3.04272 11.4108 2.69272 10.5997C2.34272 9.78856 2.16772 8.9219 2.16772 7.99967C2.16772 7.07745 2.34272 6.21079 2.69272 5.39967C3.04272 4.58856 3.51772 3.88301 4.11772 3.28301C4.71772 2.68301 5.42328 2.20801 6.23439 1.85801C7.0455 1.50801 7.91217 1.33301 8.83439 1.33301C9.75661 1.33301 10.6233 1.50801 11.4344 1.85801C12.2455 2.20801 12.9511 2.68301 13.5511 3.28301C14.1511 3.88301 14.6261 4.58856 14.9761 5.39967C15.3261 6.21079 15.5011 7.07745 15.5011 7.99967C15.5011 8.9219 15.3261 9.78856 14.9761 10.5997C14.6261 11.4108 14.1511 12.1163 13.5511 12.7163C12.9511 13.3163 12.2455 13.7913 11.4344 14.1413C10.6233 14.4913 9.75661 14.6663 8.83439 14.6663ZM8.83439 13.333C10.3233 13.333 11.5844 12.8163 12.6177 11.783C13.6511 10.7497 14.1677 9.48856 14.1677 7.99967C14.1677 6.51079 13.6511 5.24967 12.6177 4.21634C11.5844 3.18301 10.3233 2.66634 8.83439 2.66634C7.3455 2.66634 6.08439 3.18301 5.05106 4.21634C4.01772 5.24967 3.50106 6.51079 3.50106 7.99967C3.50106 9.48856 4.01772 10.7497 5.05106 11.783C6.08439 12.8163 7.3455 13.333 8.83439 13.333Z" fill="#7AB52D"/>
</g>
</g>
</svg>
