<svg width="10" height="11" viewBox="0 0 10 11" fill="none" xmlns="http://www.w3.org/2000/svg">
<path d="M5 6.56464L1.27376 10.2909C1.13435 10.4303 0.956908 10.5 0.741445 10.5C0.525982 10.5 0.348542 10.4303 0.209125 10.2909C0.0697085 10.1515 0 9.97402 0 9.75856C0 9.54309 0.0697085 9.36565 0.209125 9.22624L3.93536 5.5L0.209125 1.77376C0.0697085 1.63435 0 1.45691 0 1.24144C0 1.02598 0.0697085 0.848542 0.209125 0.709125C0.348542 0.569708 0.525982 0.5 0.741445 0.5C0.956908 0.5 1.13435 0.569708 1.27376 0.709125L5 4.43536L8.72624 0.709125C8.86565 0.569708 9.04309 0.5 9.25856 0.5C9.47402 0.5 9.65146 0.569708 9.79087 0.709125C9.93029 0.848542 10 1.02598 10 1.24144C10 1.45691 9.93029 1.63435 9.79087 1.77376L6.06464 5.5L9.79087 9.22624C9.93029 9.36565 10 9.54309 10 9.75856C10 9.97402 9.93029 10.1515 9.79087 10.2909C9.65146 10.4303 9.47402 10.5 9.25856 10.5C9.04309 10.5 8.86565 10.4303 8.72624 10.2909L5 6.56464Z" fill="#607D8B"/>
</svg>
