<svg width="14" height="14" viewBox="0 0 14 14" fill="none" xmlns="http://www.w3.org/2000/svg">
<path d="M6.99992 7.93398L8.93325 9.86732C9.05548 9.98954 9.21103 10.0507 9.39992 10.0507C9.58881 10.0507 9.74436 9.98954 9.86659 9.86732C9.98881 9.7451 10.0499 9.58954 10.0499 9.40065C10.0499 9.21176 9.98881 9.05621 9.86659 8.93398L7.93325 7.00065L9.86659 5.06732C9.98881 4.9451 10.0499 4.78954 10.0499 4.60065C10.0499 4.41176 9.98881 4.25621 9.86659 4.13398C9.74436 4.01176 9.58881 3.95065 9.39992 3.95065C9.21103 3.95065 9.05548 4.01176 8.93325 4.13398L6.99992 6.06732L5.06659 4.13398C4.94436 4.01176 4.78881 3.95065 4.59992 3.95065C4.41103 3.95065 4.25547 4.01176 4.13325 4.13398C4.01103 4.25621 3.94992 4.41176 3.94992 4.60065C3.94992 4.78954 4.01103 4.9451 4.13325 5.06732L6.06659 7.00065L4.13325 8.93398C4.01103 9.05621 3.94992 9.21176 3.94992 9.40065C3.94992 9.58954 4.01103 9.7451 4.13325 9.86732C4.25547 9.98954 4.41103 10.0507 4.59992 10.0507C4.78881 10.0507 4.94436 9.98954 5.06659 9.86732L6.99992 7.93398ZM6.99992 13.6673C6.0777 13.6673 5.21103 13.4923 4.39992 13.1423C3.58881 12.7923 2.88325 12.3173 2.28325 11.7173C1.68325 11.1173 1.20825 10.4118 0.858252 9.60065C0.508252 8.78954 0.333252 7.92287 0.333252 7.00065C0.333252 6.07843 0.508252 5.21176 0.858252 4.40065C1.20825 3.58954 1.68325 2.88398 2.28325 2.28398C2.88325 1.68398 3.58881 1.20898 4.39992 0.858984C5.21103 0.508984 6.0777 0.333984 6.99992 0.333984C7.92214 0.333984 8.78881 0.508984 9.59992 0.858984C10.411 1.20898 11.1166 1.68398 11.7166 2.28398C12.3166 2.88398 12.7916 3.58954 13.1416 4.40065C13.4916 5.21176 13.6666 6.07843 13.6666 7.00065C13.6666 7.92287 13.4916 8.78954 13.1416 9.60065C12.7916 10.4118 12.3166 11.1173 11.7166 11.7173C11.1166 12.3173 10.411 12.7923 9.59992 13.1423C8.78881 13.4923 7.92214 13.6673 6.99992 13.6673ZM6.99992 12.334C8.48881 12.334 9.74992 11.8173 10.7833 10.784C11.8166 9.75065 12.3333 8.48954 12.3333 7.00065C12.3333 5.51176 11.8166 4.25065 10.7833 3.21732C9.74992 2.18398 8.48881 1.66732 6.99992 1.66732C5.51103 1.66732 4.24992 2.18398 3.21659 3.21732C2.18325 4.25065 1.66659 5.51176 1.66659 7.00065C1.66659 8.48954 2.18325 9.75065 3.21659 10.784C4.24992 11.8173 5.51103 12.334 6.99992 12.334Z" fill="#E12021"/>
</svg>
