<svg width="20" height="20" viewBox="0 0 20 20" fill="none" xmlns="http://www.w3.org/2000/svg">
<g id="description">
<mask id="mask0_8851_20759" style="mask-type:alpha" maskUnits="userSpaceOnUse" x="0" y="0" width="20" height="20">
<rect id="Bounding box" width="20" height="20" fill="#D9D9D9"/>
</mask>
<g mask="url(#mask0_8851_20759)">
<path id="vector" d="M7.49999 15.0003H12.5C12.7361 15.0003 12.934 14.9205 13.0937 14.7607C13.2535 14.601 13.3333 14.4031 13.3333 14.167C13.3333 13.9309 13.2535 13.733 13.0937 13.5732C12.934 13.4135 12.7361 13.3337 12.5 13.3337H7.49999C7.26388 13.3337 7.06597 13.4135 6.90624 13.5732C6.74652 13.733 6.66666 13.9309 6.66666 14.167C6.66666 14.4031 6.74652 14.601 6.90624 14.7607C7.06597 14.9205 7.26388 15.0003 7.49999 15.0003ZM7.49999 11.667H12.5C12.7361 11.667 12.934 11.5871 13.0937 11.4274C13.2535 11.2677 13.3333 11.0698 13.3333 10.8337C13.3333 10.5975 13.2535 10.3996 13.0937 10.2399C12.934 10.0802 12.7361 10.0003 12.5 10.0003H7.49999C7.26388 10.0003 7.06597 10.0802 6.90624 10.2399C6.74652 10.3996 6.66666 10.5975 6.66666 10.8337C6.66666 11.0698 6.74652 11.2677 6.90624 11.4274C7.06597 11.5871 7.26388 11.667 7.49999 11.667ZM4.99999 18.3337C4.54166 18.3337 4.1493 18.1705 3.82291 17.8441C3.49652 17.5177 3.33333 17.1253 3.33333 16.667V3.33366C3.33333 2.87533 3.49652 2.48296 3.82291 2.15658C4.1493 1.83019 4.54166 1.66699 4.99999 1.66699H10.9792C11.2014 1.66699 11.4132 1.70866 11.6146 1.79199C11.816 1.87533 11.9931 1.99338 12.1458 2.14616L16.1875 6.18783C16.3403 6.3406 16.4583 6.51769 16.5417 6.71908C16.625 6.92046 16.6667 7.13227 16.6667 7.35449V16.667C16.6667 17.1253 16.5035 17.5177 16.1771 17.8441C15.8507 18.1705 15.4583 18.3337 15 18.3337H4.99999ZM10.8333 6.66699V3.33366H4.99999V16.667H15V7.50033H11.6667C11.4306 7.50033 11.2326 7.42046 11.0729 7.26074C10.9132 7.10102 10.8333 6.9031 10.8333 6.66699Z" fill="#607D8B"/>
</g>
</g>
</svg>
