<svg width="20" height="20" viewBox="0 0 20 20" fill="none" xmlns="http://www.w3.org/2000/svg">
<g id="editar">
<mask id="mask0_1882_47846" style="mask-type:alpha" maskUnits="userSpaceOnUse" x="0" y="0" width="20" height="20">
<rect id="Bounding box" width="20" height="20" fill="#D9D9D9"/>
</mask>
<g mask="url(#mask0_1882_47846)">
<path id="vector" d="M4.16667 15.8334H5.33333L12.5208 8.64585L11.3542 7.47919L4.16667 14.6667V15.8334ZM16.0833 7.43752L12.5417 3.93752L13.7083 2.77085C14.0278 2.45141 14.4201 2.29169 14.8854 2.29169C15.3507 2.29169 15.7431 2.45141 16.0625 2.77085L17.2292 3.93752C17.5486 4.25696 17.7153 4.64238 17.7292 5.09377C17.7431 5.54516 17.5903 5.93058 17.2708 6.25002L16.0833 7.43752ZM3.33333 17.5C3.09722 17.5 2.89931 17.4202 2.73958 17.2604C2.57986 17.1007 2.5 16.9028 2.5 16.6667V14.3125C2.5 14.2014 2.52083 14.0938 2.5625 13.9896C2.60417 13.8854 2.66667 13.7917 2.75 13.7084L11.3333 5.12502L14.875 8.66669L6.29167 17.25C6.20833 17.3334 6.11458 17.3959 6.01042 17.4375C5.90625 17.4792 5.79861 17.5 5.6875 17.5H3.33333Z" fill="#336A30"/>
</g>
</g>
</svg>
