<svg class="icon-action-grid" width="20" height="20" viewBox="0 0 20 20" fill="none" xmlns="http://www.w3.org/2000/svg">
<g id="editar">
<mask id="mask0_3332_31286" style="mask-type:alpha" maskUnits="userSpaceOnUse" x="0" y="0" width="20" height="20">
<rect id="Bounding box" width="20" height="20" fill="#D9D9D9"/>
</mask>
<g mask="url(#mask0_3332_31286)">
<path id="vector" d="M4.16667 15.8334H5.33333L12.5208 8.64592L11.3542 7.47925L4.16667 14.6667V15.8334ZM16.0833 7.43758L12.5417 3.93758L13.7083 2.77091C14.0278 2.45147 14.4201 2.29175 14.8854 2.29175C15.3507 2.29175 15.7431 2.45147 16.0625 2.77091L17.2292 3.93758C17.5486 4.25703 17.7153 4.64244 17.7292 5.09383C17.7431 5.54522 17.5903 5.93064 17.2708 6.25008L16.0833 7.43758ZM3.33333 17.5001C3.09722 17.5001 2.89931 17.4202 2.73958 17.2605C2.57986 17.1008 2.5 16.9029 2.5 16.6667V14.3126C2.5 14.2015 2.52083 14.0938 2.5625 13.9897C2.60417 13.8855 2.66667 13.7917 2.75 13.7084L11.3333 5.12508L14.875 8.66675L6.29167 17.2501C6.20833 17.3334 6.11458 17.3959 6.01042 17.4376C5.90625 17.4792 5.79861 17.5001 5.6875 17.5001H3.33333Z" fill="#607D8B"/>
</g>
</g>
</svg>
