<svg width="21" height="21" viewBox="0 0 21 21" fill="none" xmlns="http://www.w3.org/2000/svg">
<mask id="mask0_2543_10384" style="mask-type:alpha" maskUnits="userSpaceOnUse" x="0" y="0" width="21" height="21">
<rect width="21" height="21" fill="#D9D9D9"/>
</mask>
<g mask="url(#mask0_2543_10384)">
<path d="M4.375 16.625H5.6L13.1469 9.07812L11.9219 7.85312L4.375 15.4V16.625ZM16.8875 7.80938L13.1687 4.13438L14.3937 2.90937C14.7292 2.57396 15.1411 2.40625 15.6297 2.40625C16.1182 2.40625 16.5302 2.57396 16.8656 2.90937L18.0906 4.13438C18.426 4.46979 18.601 4.87448 18.6156 5.34844C18.6302 5.8224 18.4698 6.22708 18.1344 6.5625L16.8875 7.80938ZM3.5 18.375C3.25208 18.375 3.04427 18.2911 2.87656 18.1234C2.70885 17.9557 2.625 17.7479 2.625 17.5V15.0281C2.625 14.9115 2.64688 14.7984 2.69062 14.6891C2.73437 14.5797 2.8 14.4812 2.8875 14.3937L11.9 5.38125L15.6187 9.1L6.60625 18.1125C6.51875 18.2 6.42031 18.2656 6.31094 18.3094C6.20156 18.3531 6.08854 18.375 5.97187 18.375H3.5Z" fill="#336A30"/>
</g>
</svg>
