<svg width="21" height="21" viewBox="0 0 21 21" fill="none" xmlns="http://www.w3.org/2000/svg">
<mask id="mask0_2543_10372" style="mask-type:alpha" maskUnits="userSpaceOnUse" x="0" y="0" width="21" height="21">
<rect width="21" height="21" fill="#D9D9D9"/>
</mask>
<g mask="url(#mask0_2543_10372)">
<path d="M3.5 17.5C3.01875 17.5 2.60677 17.3286 2.26406 16.9859C1.92135 16.6432 1.75 16.2313 1.75 15.75V5.25C1.75 4.76875 1.92135 4.35677 2.26406 4.01406C2.60677 3.67135 3.01875 3.5 3.5 3.5H17.5C17.9813 3.5 18.3932 3.67135 18.7359 4.01406C19.0786 4.35677 19.25 4.76875 19.25 5.25V15.75C19.25 16.2313 19.0786 16.6432 18.7359 16.9859C18.3932 17.3286 17.9813 17.5 17.5 17.5H3.5ZM17.5 7L10.9594 11.0906C10.8865 11.1344 10.8099 11.1672 10.7297 11.1891C10.6495 11.2109 10.5729 11.2219 10.5 11.2219C10.4271 11.2219 10.3505 11.2109 10.2703 11.1891C10.1901 11.1672 10.1135 11.1344 10.0406 11.0906L3.5 7V15.75H17.5V7ZM10.5 9.625L17.5 5.25H3.5L10.5 9.625ZM3.5 7.21875V5.92813V5.95V5.93906V7.21875Z" fill="#336A30"/>
</g>
</svg>
