<svg width="21" height="21" viewBox="0 0 21 21" fill="none" xmlns="http://www.w3.org/2000/svg">
<mask id="mask0_2543_10394" style="mask-type:alpha" maskUnits="userSpaceOnUse" x="0" y="0" width="21" height="21">
<rect width="21" height="21" fill="#D9D9D9"/>
</mask>
<g mask="url(#mask0_2543_10394)">
<path d="M8.75 9.1875H9.625C9.87292 9.1875 10.0807 9.10365 10.2484 8.93594C10.4161 8.76823 10.5 8.56042 10.5 8.3125V7.4375C10.5 7.18958 10.4161 6.98177 10.2484 6.81406C10.0807 6.64635 9.87292 6.5625 9.625 6.5625H8.3125C8.19583 6.5625 8.09375 6.60625 8.00625 6.69375C7.91875 6.78125 7.875 6.88333 7.875 7V10.5C7.875 10.6167 7.91875 10.7188 8.00625 10.8063C8.09375 10.8938 8.19583 10.9375 8.3125 10.9375C8.42917 10.9375 8.53125 10.8938 8.61875 10.8063C8.70625 10.7188 8.75 10.6167 8.75 10.5V9.1875ZM8.75 8.3125V7.4375H9.625V8.3125H8.75ZM13.125 10.9375C13.3729 10.9375 13.5807 10.8536 13.7484 10.6859C13.9161 10.5182 14 10.3104 14 10.0625V7.4375C14 7.18958 13.9161 6.98177 13.7484 6.81406C13.5807 6.64635 13.3729 6.5625 13.125 6.5625H11.8125C11.6958 6.5625 11.5938 6.60625 11.5063 6.69375C11.4188 6.78125 11.375 6.88333 11.375 7V10.5C11.375 10.6167 11.4188 10.7188 11.5063 10.8063C11.5938 10.8938 11.6958 10.9375 11.8125 10.9375H13.125ZM12.25 10.0625V7.4375H13.125V10.0625H12.25ZM15.75 9.1875H16.1875C16.3042 9.1875 16.4063 9.14375 16.4938 9.05625C16.5813 8.96875 16.625 8.86667 16.625 8.75C16.625 8.63333 16.5813 8.53125 16.4938 8.44375C16.4063 8.35625 16.3042 8.3125 16.1875 8.3125H15.75V7.4375H16.1875C16.3042 7.4375 16.4063 7.39375 16.4938 7.30625C16.5813 7.21875 16.625 7.11667 16.625 7C16.625 6.88333 16.5813 6.78125 16.4938 6.69375C16.4063 6.60625 16.3042 6.5625 16.1875 6.5625H15.3125C15.1958 6.5625 15.0938 6.60625 15.0063 6.69375C14.9188 6.78125 14.875 6.88333 14.875 7V10.5C14.875 10.6167 14.9188 10.7188 15.0063 10.8063C15.0938 10.8938 15.1958 10.9375 15.3125 10.9375C15.4292 10.9375 15.5313 10.8938 15.6188 10.8063C15.7063 10.7188 15.75 10.6167 15.75 10.5V9.1875ZM7 15.75C6.51875 15.75 6.10677 15.5786 5.76406 15.2359C5.42135 14.8932 5.25 14.4813 5.25 14V3.5C5.25 3.01875 5.42135 2.60677 5.76406 2.26406C6.10677 1.92135 6.51875 1.75 7 1.75H17.5C17.9813 1.75 18.3932 1.92135 18.7359 2.26406C19.0786 2.60677 19.25 3.01875 19.25 3.5V14C19.25 14.4813 19.0786 14.8932 18.7359 15.2359C18.3932 15.5786 17.9813 15.75 17.5 15.75H7ZM7 14H17.5V3.5H7V14ZM3.5 19.25C3.01875 19.25 2.60677 19.0786 2.26406 18.7359C1.92135 18.3932 1.75 17.9813 1.75 17.5V6.125C1.75 5.87708 1.83385 5.66927 2.00156 5.50156C2.16927 5.33385 2.37708 5.25 2.625 5.25C2.87292 5.25 3.08073 5.33385 3.24844 5.50156C3.41615 5.66927 3.5 5.87708 3.5 6.125V17.5H14.875C15.1229 17.5 15.3307 17.5839 15.4984 17.7516C15.6661 17.9193 15.75 18.1271 15.75 18.375C15.75 18.6229 15.6661 18.8307 15.4984 18.9984C15.3307 19.1661 15.1229 19.25 14.875 19.25H3.5Z" fill="#336A30"/>
</g>
</svg>
