<svg width="20" height="15" viewBox="0 0 20 15" fill="none" xmlns="http://www.w3.org/2000/svg">
<path d="M9.9 11.7717C11.025 11.7717 11.9812 11.3779 12.7687 10.5904C13.5562 9.80293 13.95 8.84668 13.95 7.72168C13.95 6.59668 13.5562 5.64043 12.7687 4.85293C11.9812 4.06543 11.025 3.67168 9.9 3.67168C8.775 3.67168 7.81875 4.06543 7.03125 4.85293C6.24375 5.64043 5.85 6.59668 5.85 7.72168C5.85 8.84668 6.24375 9.80293 7.03125 10.5904C7.81875 11.3779 8.775 11.7717 9.9 11.7717ZM9.9 10.1517C9.225 10.1517 8.65125 9.91543 8.17875 9.44293C7.70625 8.97043 7.47 8.39668 7.47 7.72168C7.47 7.04668 7.70625 6.47293 8.17875 6.00043C8.65125 5.52793 9.225 5.29168 9.9 5.29168C10.575 5.29168 11.1488 5.52793 11.6213 6.00043C12.0938 6.47293 12.33 7.04668 12.33 7.72168C12.33 8.39668 12.0938 8.97043 11.6213 9.44293C11.1488 9.91543 10.575 10.1517 9.9 10.1517ZM9.9 14.4717C7.71 14.4717 5.715 13.8604 3.915 12.6379C2.115 11.4154 0.81 9.77668 0 7.72168C0.81 5.66668 2.115 4.02793 3.915 2.80543C5.715 1.58293 7.71 0.97168 9.9 0.97168C12.09 0.97168 14.085 1.58293 15.885 2.80543C17.685 4.02793 18.99 5.66668 19.8 7.72168C18.99 9.77668 17.685 11.4154 15.885 12.6379C14.085 13.8604 12.09 14.4717 9.9 14.4717ZM9.9 12.6717C11.595 12.6717 13.1512 12.2254 14.5687 11.3329C15.9862 10.4404 17.07 9.23668 17.82 7.72168C17.07 6.20668 15.9862 5.00293 14.5687 4.11043C13.1512 3.21793 11.595 2.77168 9.9 2.77168C8.205 2.77168 6.64875 3.21793 5.23125 4.11043C3.81375 5.00293 2.73 6.20668 1.98 7.72168C2.73 9.23668 3.81375 10.4404 5.23125 11.3329C6.64875 12.2254 8.205 12.6717 9.9 12.6717Z" fill="#607D8B"/>
</svg>
