<svg width="21" height="18" viewBox="0 0 21 18" fill="none" xmlns="http://www.w3.org/2000/svg">
<path d="M14.2477 9.45L12.9427 8.145C13.0777 7.44 12.8752 6.78 12.3352 6.165C11.7952 5.55 11.0977 5.31 10.2427 5.445L8.93771 4.14C9.19271 4.02 9.45146 3.93 9.71396 3.87C9.97646 3.81 10.2577 3.78 10.5577 3.78C11.6827 3.78 12.639 4.17375 13.4265 4.96125C14.214 5.74875 14.6077 6.705 14.6077 7.83C14.6077 8.13 14.5777 8.41125 14.5177 8.67375C14.4577 8.93625 14.3677 9.195 14.2477 9.45ZM17.1277 12.285L15.8227 11.025C16.3927 10.59 16.899 10.1138 17.3415 9.59625C17.784 9.07875 18.1627 8.49 18.4777 7.83C17.7277 6.315 16.6515 5.11125 15.249 4.21875C13.8465 3.32625 12.2827 2.88 10.5577 2.88C10.1227 2.88 9.69521 2.91 9.27521 2.97C8.85521 3.03 8.44271 3.12 8.03771 3.24L6.64271 1.845C7.25771 1.59 7.88771 1.39875 8.53271 1.27125C9.17771 1.14375 9.85271 1.08 10.5577 1.08C12.8227 1.08 14.8402 1.70625 16.6102 2.95875C18.3802 4.21125 19.6627 5.835 20.4577 7.83C20.1127 8.715 19.659 9.53625 19.0965 10.2937C18.534 11.0512 17.8777 11.715 17.1277 12.285ZM17.5777 17.82L13.7977 14.085C13.2727 14.25 12.744 14.3738 12.2115 14.4563C11.679 14.5388 11.1277 14.58 10.5577 14.58C8.29271 14.58 6.27521 13.9537 4.50521 12.7013C2.73521 11.4487 1.45271 9.825 0.657715 7.83C0.972715 7.035 1.37021 6.29625 1.85021 5.61375C2.33021 4.93125 2.87771 4.32 3.49271 3.78L1.01771 1.26L2.27771 0L18.8377 16.56L17.5777 17.82ZM4.75272 5.04C4.31771 5.43 3.92021 5.8575 3.56021 6.3225C3.20021 6.7875 2.89271 7.29 2.63771 7.83C3.38771 9.345 4.46396 10.5487 5.86646 11.4412C7.26896 12.3338 8.83272 12.78 10.5577 12.78C10.8577 12.78 11.1502 12.7613 11.4352 12.7238C11.7202 12.6863 12.0127 12.645 12.3127 12.6L11.5027 11.745C11.3377 11.79 11.1802 11.8238 11.0302 11.8463C10.8802 11.8688 10.7227 11.88 10.5577 11.88C9.43271 11.88 8.47646 11.4862 7.68896 10.6987C6.90146 9.91125 6.50771 8.955 6.50771 7.83C6.50771 7.665 6.51896 7.5075 6.54146 7.3575C6.56396 7.2075 6.59771 7.05 6.64271 6.885L4.75272 5.04Z" fill="#607D8B"/>
</svg>
