<svg width="25" height="25" viewBox="0 0 25 25" fill="none" xmlns="http://www.w3.org/2000/svg">
<mask id="mask0_18622_16335" style="mask-type:alpha" maskUnits="userSpaceOnUse" x="0" y="0" width="25" height="25">
<rect x="0.0488281" y="0.5" width="24" height="24" fill="#D9D9D9"/>
</mask>
<g mask="url(#mask0_18622_16335)">
<path d="M12.0488 20.5C11.4988 20.5 11.028 20.3042 10.6363 19.9125C10.2447 19.5208 10.0488 19.05 10.0488 18.5C10.0488 17.95 10.2447 17.4792 10.6363 17.0875C11.028 16.6958 11.4988 16.5 12.0488 16.5C12.5988 16.5 13.0697 16.6958 13.4613 17.0875C13.853 17.4792 14.0488 17.95 14.0488 18.5C14.0488 19.05 13.853 19.5208 13.4613 19.9125C13.0697 20.3042 12.5988 20.5 12.0488 20.5ZM12.0488 14.5C11.4988 14.5 11.028 14.3042 10.6363 13.9125C10.2447 13.5208 10.0488 13.05 10.0488 12.5C10.0488 11.95 10.2447 11.4792 10.6363 11.0875C11.028 10.6958 11.4988 10.5 12.0488 10.5C12.5988 10.5 13.0697 10.6958 13.4613 11.0875C13.853 11.4792 14.0488 11.95 14.0488 12.5C14.0488 13.05 13.853 13.5208 13.4613 13.9125C13.0697 14.3042 12.5988 14.5 12.0488 14.5ZM12.0488 8.5C11.4988 8.5 11.028 8.30417 10.6363 7.9125C10.2447 7.52083 10.0488 7.05 10.0488 6.5C10.0488 5.95 10.2447 5.47917 10.6363 5.0875C11.028 4.69583 11.4988 4.5 12.0488 4.5C12.5988 4.5 13.0697 4.69583 13.4613 5.0875C13.853 5.47917 14.0488 5.95 14.0488 6.5C14.0488 7.05 13.853 7.52083 13.4613 7.9125C13.0697 8.30417 12.5988 8.5 12.0488 8.5Z" fill="#263238"/>
</g>
</svg>
