<svg width="25" height="24" viewBox="0 0 25 24" fill="none" xmlns="http://www.w3.org/2000/svg">
<mask id="mask0_14825_970" style="mask-type:alpha" maskUnits="userSpaceOnUse" x="0" y="0" width="25" height="24">
<rect x="0.5" width="24" height="24" fill="#D9D9D9"/>
</mask>
<g mask="url(#mask0_14825_970)">
<path d="M12.5 17C12.2976 17 12.128 16.9315 11.9911 16.7946C11.8542 16.6577 11.7857 16.4881 11.7857 16.2857V12.7143H8.21429C8.0119 12.7143 7.84226 12.6458 7.70536 12.5089C7.56845 12.372 7.5 12.2024 7.5 12C7.5 11.7976 7.56845 11.628 7.70536 11.4911C7.84226 11.3542 8.0119 11.2857 8.21429 11.2857H11.7857V7.71429C11.7857 7.5119 11.8542 7.34226 11.9911 7.20536C12.128 7.06845 12.2976 7 12.5 7C12.7024 7 12.872 7.06845 13.0089 7.20536C13.1458 7.34226 13.2143 7.5119 13.2143 7.71429V11.2857H16.7857C16.9881 11.2857 17.1577 11.3542 17.2946 11.4911C17.4315 11.628 17.5 11.7976 17.5 12C17.5 12.2024 17.4315 12.372 17.2946 12.5089C17.1577 12.6458 16.9881 12.7143 16.7857 12.7143H13.2143V16.2857C13.2143 16.4881 13.1458 16.6577 13.0089 16.7946C12.872 16.9315 12.7024 17 12.5 17Z" fill="#607D8B"/>
</g>
</svg>
