<svg width="25" height="25" viewBox="0 0 25 25" fill="none" xmlns="http://www.w3.org/2000/svg">
<mask id="mask0_2667_21879" style="mask-type:alpha" maskUnits="userSpaceOnUse" x="0" y="0" width="25" height="25">
<rect x="0.253906" y="0.820312" width="24" height="24" fill="#D9D9D9"/>
</mask>
<g mask="url(#mask0_2667_21879)">
<path d="M12.2539 17.8203C12.0515 17.8203 11.8819 17.7519 11.745 17.615C11.6081 17.4781 11.5396 17.3084 11.5396 17.106V13.5346H7.96819C7.76581 13.5346 7.59617 13.4661 7.45926 13.3292C7.32236 13.1923 7.25391 13.0227 7.25391 12.8203C7.25391 12.6179 7.32236 12.4483 7.45926 12.3114C7.59617 12.1745 7.76581 12.106 7.96819 12.106H11.5396V8.5346C11.5396 8.33222 11.6081 8.16257 11.745 8.02567C11.8819 7.88876 12.0515 7.82031 12.2539 7.82031C12.4563 7.82031 12.6259 7.88876 12.7628 8.02567C12.8997 8.16257 12.9682 8.33222 12.9682 8.5346V12.106H16.5396C16.742 12.106 16.9116 12.1745 17.0485 12.3114C17.1855 12.4483 17.2539 12.6179 17.2539 12.8203C17.2539 13.0227 17.1855 13.1923 17.0485 13.3292C16.9116 13.4661 16.742 13.5346 16.5396 13.5346H12.9682V17.106C12.9682 17.3084 12.8997 17.4781 12.7628 17.615C12.6259 17.7519 12.4563 17.8203 12.2539 17.8203Z" fill="#455A64"/>
</g>
</svg>
