<svg width="20" height="15" viewBox="0 0 20 15" fill="none" xmlns="http://www.w3.org/2000/svg">
<path d="M9.9 11.7727C11.025 11.7727 11.9812 11.3789 12.7687 10.5914C13.5562 9.80391 13.95 8.84766 13.95 7.72266C13.95 6.59766 13.5562 5.64141 12.7687 4.85391C11.9812 4.06641 11.025 3.67266 9.9 3.67266C8.775 3.67266 7.81875 4.06641 7.03125 4.85391C6.24375 5.64141 5.85 6.59766 5.85 7.72266C5.85 8.84766 6.24375 9.80391 7.03125 10.5914C7.81875 11.3789 8.775 11.7727 9.9 11.7727ZM9.9 10.1527C9.225 10.1527 8.65125 9.91641 8.17875 9.44391C7.70625 8.97141 7.47 8.39766 7.47 7.72266C7.47 7.04766 7.70625 6.47391 8.17875 6.00141C8.65125 5.52891 9.225 5.29266 9.9 5.29266C10.575 5.29266 11.1488 5.52891 11.6213 6.00141C12.0938 6.47391 12.33 7.04766 12.33 7.72266C12.33 8.39766 12.0938 8.97141 11.6213 9.44391C11.1488 9.91641 10.575 10.1527 9.9 10.1527ZM9.9 14.4727C7.71 14.4727 5.715 13.8614 3.915 12.6389C2.115 11.4164 0.81 9.77766 0 7.72266C0.81 5.66766 2.115 4.02891 3.915 2.80641C5.715 1.58391 7.71 0.972656 9.9 0.972656C12.09 0.972656 14.085 1.58391 15.885 2.80641C17.685 4.02891 18.99 5.66766 19.8 7.72266C18.99 9.77766 17.685 11.4164 15.885 12.6389C14.085 13.8614 12.09 14.4727 9.9 14.4727ZM9.9 12.6727C11.595 12.6727 13.1512 12.2264 14.5687 11.3339C15.9862 10.4414 17.07 9.23766 17.82 7.72266C17.07 6.20766 15.9862 5.00391 14.5687 4.11141C13.1512 3.21891 11.595 2.77266 9.9 2.77266C8.205 2.77266 6.64875 3.21891 5.23125 4.11141C3.81375 5.00391 2.73 6.20766 1.98 7.72266C2.73 9.23766 3.81375 10.4414 5.23125 11.3339C6.64875 12.2264 8.205 12.6727 9.9 12.6727Z" fill="#63A04B"/>
</svg>
