<svg width="21" height="20" viewBox="0 0 21 20" fill="none" xmlns="http://www.w3.org/2000/svg">
<mask id="mask0_2759_62875" style="mask-type:alpha" maskUnits="userSpaceOnUse" x="0" y="0" width="21" height="20">
<rect x="0.5" width="20" height="20" fill="#D9D9D9"/>
</mask>
<g mask="url(#mask0_2759_62875)">
<path d="M10.5 11.0646L6.77376 14.7909C6.63435 14.9303 6.45691 15 6.24144 15C6.02598 15 5.84854 14.9303 5.70913 14.7909C5.56971 14.6515 5.5 14.474 5.5 14.2586C5.5 14.0431 5.56971 13.8657 5.70913 13.7262L9.43536 10L5.70913 6.27376C5.56971 6.13435 5.5 5.95691 5.5 5.74144C5.5 5.52598 5.56971 5.34854 5.70913 5.20913C5.84854 5.06971 6.02598 5 6.24144 5C6.45691 5 6.63435 5.06971 6.77376 5.20913L10.5 8.93536L14.2262 5.20913C14.3657 5.06971 14.5431 5 14.7586 5C14.974 5 15.1515 5.06971 15.2909 5.20913C15.4303 5.34854 15.5 5.52598 15.5 5.74144C15.5 5.95691 15.4303 6.13435 15.2909 6.27376L11.5646 10L15.2909 13.7262C15.4303 13.8657 15.5 14.0431 15.5 14.2586C15.5 14.474 15.4303 14.6515 15.2909 14.7909C15.1515 14.9303 14.974 15 14.7586 15C14.5431 15 14.3657 14.9303 14.2262 14.7909L10.5 11.0646Z" fill="#607D8B"/>
</g>
</svg>
