<svg width="20" height="20" viewBox="0 0 20 20" fill="none" xmlns="http://www.w3.org/2000/svg">
  <mask id="mask0_16890_127742" style="mask-type:alpha" maskUnits="userSpaceOnUse" x="0" y="0" width="20" height="20">
    <rect width="20" height="20" fill="#D9D9D9"/>
  </mask>
  <g mask="url(#mask0_16890_127742)">
    <path d="M13.6042 15.6667L12.6458 16.625C12.4097 16.8611 12.1181 16.9826 11.7708 16.9896C11.4236 16.9965 11.125 16.875 10.875 16.625C10.6389 16.3889 10.5208 16.0937 10.5208 15.7396C10.5208 15.3854 10.6389 15.0903 10.875 14.8542L11.8333 13.8958C11.7778 13.7431 11.7361 13.5833 11.7083 13.4167C11.6806 13.25 11.6667 13.0833 11.6667 12.9167C11.6667 12.1111 11.9514 11.4236 12.5208 10.8542C13.0903 10.2847 13.7778 10 14.5833 10C14.7083 10 14.8333 10.0035 14.9583 10.0104C15.0833 10.0174 15.2014 10.0417 15.3125 10.0833C15.4653 10.1389 15.559 10.2535 15.5938 10.4271C15.6285 10.6007 15.5903 10.7431 15.4792 10.8542L14.5833 11.75C14.4306 11.9028 14.3542 12.0972 14.3542 12.3333C14.3542 12.5694 14.4306 12.7639 14.5833 12.9167C14.7361 13.0694 14.9306 13.1458 15.1667 13.1458C15.4028 13.1458 15.5972 13.0694 15.75 12.9167L16.6458 12.0208C16.7569 11.9097 16.8993 11.8715 17.0729 11.9063C17.2465 11.941 17.3611 12.0347 17.4167 12.1875C17.4583 12.2986 17.4826 12.4167 17.4896 12.5417C17.4965 12.6667 17.5 12.7917 17.5 12.9167C17.5 13.7222 17.2153 14.4097 16.6458 14.9792C16.0764 15.5486 15.3889 15.8333 14.5833 15.8333C14.4028 15.8333 14.2326 15.8194 14.0729 15.7917C13.9132 15.7639 13.7569 15.7222 13.6042 15.6667ZM10 4.16667C8.375 4.16667 6.99653 4.73264 5.86458 5.86458C4.73264 6.99653 4.16667 8.375 4.16667 10C4.16667 11 4.39236 11.9167 4.84375 12.75C5.29514 13.5833 5.90278 14.2639 6.66667 14.7917V13.3333C6.66667 13.0972 6.74653 12.8993 6.90625 12.7396C7.06597 12.5799 7.26389 12.5 7.5 12.5C7.73611 12.5 7.93403 12.5799 8.09375 12.7396C8.25347 12.8993 8.33333 13.0972 8.33333 13.3333V16.6667C8.33333 16.9028 8.25347 17.1007 8.09375 17.2604C7.93403 17.4201 7.73611 17.5 7.5 17.5H4.16667C3.93056 17.5 3.73264 17.4201 3.57292 17.2604C3.41319 17.1007 3.33333 16.9028 3.33333 16.6667C3.33333 16.4306 3.41319 16.2326 3.57292 16.0729C3.73264 15.9132 3.93056 15.8333 4.16667 15.8333H5.29167C4.43056 15.1389 3.75 14.2882 3.25 13.2812C2.75 12.2743 2.5 11.1806 2.5 10C2.5 8.95833 2.69792 7.98264 3.09375 7.07292C3.48958 6.16319 4.02431 5.37153 4.69792 4.69792C5.37153 4.02431 6.16319 3.48958 7.07292 3.09375C7.98264 2.69792 8.95833 2.5 10 2.5C11.5694 2.5 12.9826 2.9375 14.2396 3.8125C15.4965 4.6875 16.4028 5.8125 16.9583 7.1875C17.0417 7.40972 17.0417 7.625 16.9583 7.83333C16.875 8.04167 16.7222 8.1875 16.5 8.27083C16.2778 8.35417 16.059 8.35417 15.8438 8.27083C15.6285 8.1875 15.4792 8.03472 15.3958 7.8125C14.9653 6.72917 14.2674 5.85069 13.3021 5.17708C12.3368 4.50347 11.2361 4.16667 10 4.16667Z" fill="#455A64"/>
  </g>
</svg>
