<svg width="24" height="24" viewBox="0 0 24 24" fill="none" xmlns="http://www.w3.org/2000/svg">
<mask id="mask0_2368_12305" style="mask-type:alpha" maskUnits="userSpaceOnUse" x="0" y="0" width="24" height="24">
<rect width="24" height="24" fill="#D9D9D9"/>
</mask>
<g mask="url(#mask0_2368_12305)">
<path d="M18.4545 19.7496L13.3636 14.6515C12.9091 15.0156 12.3864 15.3039 11.7955 15.5164C11.2045 15.7288 10.5758 15.835 9.90909 15.835C8.25758 15.835 6.85985 15.2622 5.71591 14.1166C4.57197 12.9711 4 11.5714 4 9.9175C4 8.26363 4.57197 6.86392 5.71591 5.71835C6.85985 4.57278 8.25758 4 9.90909 4C11.5606 4 12.9583 4.57278 14.1023 5.71835C15.2462 6.86392 15.8182 8.26363 15.8182 9.9175C15.8182 10.5851 15.7121 11.2148 15.5 11.8065C15.2879 12.3983 15 12.9218 14.6364 13.377L19.75 18.4979C19.9167 18.6648 20 18.8696 20 19.1124C20 19.3551 19.9091 19.5676 19.7273 19.7496C19.5606 19.9165 19.3485 20 19.0909 20C18.8333 20 18.6212 19.9165 18.4545 19.7496ZM9.90909 14.0142C11.0455 14.0142 12.0114 13.6159 12.8068 12.8193C13.6023 12.0228 14 11.0555 14 9.9175C14 8.77952 13.6023 7.81223 12.8068 7.01565C12.0114 6.21906 11.0455 5.82077 9.90909 5.82077C8.77273 5.82077 7.80682 6.21906 7.01136 7.01565C6.21591 7.81223 5.81818 8.77952 5.81818 9.9175C5.81818 11.0555 6.21591 12.0228 7.01136 12.8193C7.80682 13.6159 8.77273 14.0142 9.90909 14.0142Z" fill="#455A64"/>
</g>
</svg>
