<svg width="70" height="71" viewBox="0 0 70 71" fill="none" xmlns="http://www.w3.org/2000/svg">
<g id="upload_file">
<mask id="mask0_3764_2229" style="mask-type:alpha" maskUnits="userSpaceOnUse" x="0" y="0" width="70" height="71">
<rect id="Bounding box" y="0.0688477" width="70" height="70" fill="#D9D9D9"/>
</mask>
<g mask="url(#mask0_3764_2229)">
<path id="upload_file_2" d="M32.9583 40.6836V53.1523C32.9583 53.7721 33.1691 54.2917 33.5908 54.7109C34.0126 55.1302 34.5352 55.3398 35.1586 55.3398C35.782 55.3398 36.3003 55.1302 36.7135 54.7109C37.1267 54.2917 37.3333 53.7721 37.3333 53.1523V40.6836L41.7812 45.1315C41.927 45.2773 42.2916 45.2287 42.875 44.9857C43.4583 44.7426 44.0052 44.5239 44.5156 44.3294C45.026 44.135 45.3784 44.0499 45.5729 44.0742C45.7673 44.0985 45.5243 44.451 44.8437 45.1315C45.2812 44.694 45.4878 44.1836 45.4635 43.6003C45.4392 43.0169 45.2083 42.5065 44.7708 42.069L36.5312 34.0482C36.2882 33.8051 36.0419 33.635 35.7923 33.5378C35.5428 33.4405 35.2754 33.3919 34.9903 33.3919C34.7051 33.3919 34.4409 33.4405 34.1979 33.5378C33.9548 33.635 33.7118 33.8051 33.4687 34.0482L25.302 42.2148C24.8645 42.6523 24.6458 43.1628 24.6458 43.7461C24.6458 44.3294 24.8645 44.8493 25.302 45.3059C25.7395 45.7243 26.25 45.9336 26.8333 45.9336C27.4166 45.9336 27.927 45.7148 28.3645 45.2773L32.9583 40.6836ZM16.0416 64.2357C14.875 64.2357 13.8541 63.7982 12.9791 62.9232C12.1041 62.0482 11.6666 61.0273 11.6666 59.8607V10.2773C11.6666 9.11068 12.1041 8.08984 12.9791 7.21484C13.8541 6.33984 14.875 5.90234 16.0416 5.90234H40.5416C41.1465 5.90234 41.7231 6.02387 42.2714 6.26693C42.8196 6.50998 43.2882 6.82595 43.677 7.21484L57.0208 20.5586C57.4097 20.9475 57.7257 21.416 57.9687 21.9643C58.2118 22.5125 58.3333 23.0891 58.3333 23.694V59.8607C58.3333 61.0273 57.8958 62.0482 57.0208 62.9232C56.1458 63.7982 55.125 64.2357 53.9583 64.2357H16.0416ZM40.177 21.6523V10.2773H16.0416V59.8607H53.9583V23.8398H42.3645C41.7448 23.8398 41.2252 23.6302 40.806 23.2109C40.3867 22.7917 40.177 22.2721 40.177 21.6523Z" fill="#607D8B"/>
</g>
</g>
</svg>
