<svg width="21" height="21" viewBox="0 0 21 21" fill="none" xmlns="http://www.w3.org/2000/svg">
<g id="upload_file">
<mask id="mask0_861_27008" style="mask-type:alpha" maskUnits="userSpaceOnUse" x="0" y="0" width="21" height="21">
<rect id="Bounding box" width="21" height="21" fill="#D9D9D9"/>
</mask>
<g mask="url(#mask0_861_27008)">
<path id="upload_file_2" d="M9.625 16.625H11.375V12.9719L12.775 14.3719L14 13.125L10.5 9.625L7 13.125L8.24688 14.35L9.625 12.9719V16.625ZM5.25 19.25C4.76875 19.25 4.35677 19.0786 4.01406 18.7359C3.67135 18.3932 3.5 17.9813 3.5 17.5V3.5C3.5 3.01875 3.67135 2.60677 4.01406 2.26406C4.35677 1.92135 4.76875 1.75 5.25 1.75H12.25L17.5 7V17.5C17.5 17.9813 17.3286 18.3932 16.9859 18.7359C16.6432 19.0786 16.2312 19.25 15.75 19.25H5.25ZM11.375 7.875V3.5H5.25V17.5H15.75V7.875H11.375Z" fill="#336A30"/>
</g>
</g>
</svg>
