<svg width="21" height="21" viewBox="0 0 21 21" fill="none" xmlns="http://www.w3.org/2000/svg">
<mask id="mask0_2543_17281" style="mask-type:alpha" maskUnits="userSpaceOnUse" x="0" y="0" width="21" height="21">
<rect width="21" height="21" fill="#D9D9D9"/>
</mask>
<g mask="url(#mask0_2543_17281)">
<path d="M10.5 17.5C10.0187 17.5 9.60677 17.3286 9.26406 16.9859C8.92135 16.6432 8.75 16.2313 8.75 15.75C8.75 15.2687 8.92135 14.8568 9.26406 14.5141C9.60677 14.1714 10.0187 14 10.5 14C10.9813 14 11.3932 14.1714 11.7359 14.5141C12.0786 14.8568 12.25 15.2687 12.25 15.75C12.25 16.2313 12.0786 16.6432 11.7359 16.9859C11.3932 17.3286 10.9813 17.5 10.5 17.5ZM10.5 12.25C10.0187 12.25 9.60677 12.0786 9.26406 11.7359C8.92135 11.3932 8.75 10.9813 8.75 10.5C8.75 10.0187 8.92135 9.60677 9.26406 9.26406C9.60677 8.92135 10.0187 8.75 10.5 8.75C10.9813 8.75 11.3932 8.92135 11.7359 9.26406C12.0786 9.60677 12.25 10.0187 12.25 10.5C12.25 10.9813 12.0786 11.3932 11.7359 11.7359C11.3932 12.0786 10.9813 12.25 10.5 12.25ZM10.5 7C10.0187 7 9.60677 6.82865 9.26406 6.48594C8.92135 6.14323 8.75 5.73125 8.75 5.25C8.75 4.76875 8.92135 4.35677 9.26406 4.01406C9.60677 3.67135 10.0187 3.5 10.5 3.5C10.9813 3.5 11.3932 3.67135 11.7359 4.01406C12.0786 4.35677 12.25 4.76875 12.25 5.25C12.25 5.73125 12.0786 6.14323 11.7359 6.48594C11.3932 6.82865 10.9813 7 10.5 7Z" fill="#336A30"/>
</g>
</svg>
