<svg width="20" height="20" viewBox="0 0 20 20" fill="none" xmlns="http://www.w3.org/2000/svg">
<g id="Social Media Icon/Whatsapp">
<g id="Whatsapp">
<mask id="path-1-inside-1_5059_25189" fill="white">
<path fill-rule="evenodd" clip-rule="evenodd" d="M1 9.9998C1 5.03686 5.03698 0.999878 9.99993 0.999878V1.00003H10.0052C14.9681 1.00003 19.0051 5.03701 19.0051 9.99995C19.0051 14.9627 14.9681 18.9999 10.0052 18.9999C8.17444 18.9999 6.47602 18.455 5.05281 17.5132L1.59252 18.6188L2.71424 15.275C1.63493 13.7934 1 11.968 1 9.9998ZM6.91537 5.12685C7.17983 5.1376 7.31213 5.15343 7.48669 5.57139C7.54308 5.70749 7.62055 5.89543 7.70544 6.10138C7.94721 6.68788 8.24921 7.42051 8.29617 7.51843C8.35964 7.65073 8.42325 7.83066 8.33321 8.00522C8.25444 8.17261 8.18486 8.25303 8.06902 8.38689C8.06034 8.39693 8.0514 8.40726 8.04217 8.41796C7.98555 8.48365 7.92992 8.54254 7.87442 8.60127C7.80025 8.67978 7.72633 8.75802 7.65065 8.85189C7.64853 8.85438 7.64641 8.85687 7.64428 8.85936C7.52439 9.00003 7.39409 9.15291 7.54492 9.41276C7.69828 9.67198 8.22734 10.5343 9.00517 11.2273C9.92829 12.0483 10.6907 12.3566 11.0345 12.4956C11.0652 12.508 11.0925 12.5191 11.1163 12.529C11.3331 12.619 11.5925 12.5978 11.7512 12.4285C11.9233 12.243 12.1301 11.9529 12.3453 11.651C12.3817 11.5999 12.4183 11.5486 12.455 11.4973C12.6348 11.2433 12.8622 11.2115 13.1004 11.3014C13.3438 11.3861 14.6296 12.021 14.8941 12.1533C14.9481 12.1804 14.9983 12.2045 15.0447 12.2268C15.2252 12.3136 15.3462 12.3718 15.3967 12.4602C15.4603 12.5713 15.4603 13.0951 15.2433 13.709C15.0264 14.3225 14.1639 14.8307 13.4761 14.9788C13.0053 15.0793 12.3914 15.1588 10.3227 14.3016C7.87233 13.287 6.22987 10.9062 5.8958 10.4219C5.8692 10.3833 5.85089 10.3568 5.84113 10.3439C5.83741 10.3388 5.833 10.3328 5.82792 10.3258C5.65983 10.096 4.77242 8.88276 4.77242 7.62952C4.77242 6.37467 5.39226 5.74475 5.66985 5.46264C5.67786 5.4545 5.68559 5.44665 5.693 5.43909C5.90997 5.21689 6.26969 5.1164 6.61374 5.1164C6.71436 5.11689 6.81495 5.12038 6.91537 5.12685Z"/>
</mask>
<path d="M9.99993 0.999878H11.4999V-0.500122H9.99993V0.999878ZM9.99993 1.00003H8.49993V2.50003H9.99993V1.00003ZM5.05281 17.5132L5.88059 16.2623L5.28107 15.8656L4.59628 16.0844L5.05281 17.5132ZM1.59252 18.6188L0.170405 18.1417L-0.771242 20.9488L2.04905 20.0476L1.59252 18.6188ZM2.71424 15.275L4.13636 15.752L4.38268 15.0178L3.92665 14.3918L2.71424 15.275ZM7.48669 5.57139L8.87246 4.99724L8.87082 4.99331L7.48669 5.57139ZM6.91537 5.12685L6.81895 6.62375L6.83668 6.62489L6.85444 6.62561L6.91537 5.12685ZM7.70544 6.10138L9.09224 5.52973V5.52972L7.70544 6.10138ZM8.29617 7.51843L6.94372 8.16717L6.94372 8.16718L8.29617 7.51843ZM8.33321 8.00522L7.00011 7.31758L6.98759 7.34186L6.97595 7.36658L8.33321 8.00522ZM8.06902 8.38689L9.20331 9.36842L9.20332 9.36841L8.06902 8.38689ZM8.04217 8.41796L6.90642 7.43813L6.90594 7.43868L8.04217 8.41796ZM7.87442 8.60127L6.78411 7.57111L6.78411 7.57112L7.87442 8.60127ZM7.65065 8.85189L8.79277 9.82429L8.8058 9.80898L8.81842 9.79333L7.65065 8.85189ZM7.64428 8.85936L8.78589 9.83236L8.78595 9.83229L7.64428 8.85936ZM7.54492 9.41276L6.24759 10.1658L6.25392 10.1765L7.54492 9.41276ZM9.00517 11.2273L8.00733 12.3473L8.00833 12.3482L9.00517 11.2273ZM11.0345 12.4956L10.4722 13.8862L10.4722 13.8862L11.0345 12.4956ZM11.1163 12.529L10.5382 13.9131L10.541 13.9143L11.1163 12.529ZM11.7512 12.4285L12.8456 13.4544L12.8509 13.4487L11.7512 12.4285ZM12.3453 11.651L13.5668 12.5216L13.5668 12.5216L12.3453 11.651ZM12.455 11.4973L13.6743 12.371L13.6793 12.3639L12.455 11.4973ZM13.1004 11.3014L12.5707 12.7048L12.5891 12.7117L12.6076 12.7181L13.1004 11.3014ZM14.8941 12.1533L15.5658 10.8121L15.5652 10.8118L14.8941 12.1533ZM15.0447 12.2268L14.3947 13.5787L14.3947 13.5787L15.0447 12.2268ZM15.3967 12.4602L14.0942 13.2042L14.095 13.2055L15.3967 12.4602ZM15.2433 13.709L16.6575 14.209L16.6576 14.2088L15.2433 13.709ZM13.4761 14.9788L13.7892 16.4458L13.7919 16.4452L13.4761 14.9788ZM10.3227 14.3016L10.8968 12.9159L10.8965 12.9158L10.3227 14.3016ZM5.8958 10.4219L4.6611 11.2737L4.6611 11.2737L5.8958 10.4219ZM5.84113 10.3439L4.62757 11.2256L4.63669 11.2381L4.64606 11.2505L5.84113 10.3439ZM5.82792 10.3258L7.03864 9.44032L7.03864 9.44031L5.82792 10.3258ZM5.66985 5.46264L4.60068 4.41057L4.60067 4.41057L5.66985 5.46264ZM5.693 5.43909L6.76431 6.48899L6.76621 6.48705L5.693 5.43909ZM6.61374 5.1164L6.62116 3.6164H6.61374V5.1164ZM9.99993 -0.500122C4.20856 -0.500122 -0.5 4.20843 -0.5 9.9998H2.5C2.5 5.86529 5.86541 2.49988 9.99993 2.49988V-0.500122ZM11.4999 1.00003V0.999878H8.49993V1.00003H11.4999ZM10.0052 -0.499973H9.99993V2.50003H10.0052V-0.499973ZM20.5051 9.99995C20.5051 4.20858 15.7965 -0.499973 10.0052 -0.499973V2.50003C14.1397 2.50003 17.5051 5.86544 17.5051 9.99995H20.5051ZM10.0052 20.4999C15.7965 20.4999 20.5051 15.7912 20.5051 9.99995H17.5051C17.5051 14.1343 14.1397 17.4999 10.0052 17.4999V20.4999ZM4.22504 18.7641C5.88644 19.8635 7.8714 20.4999 10.0052 20.4999V17.4999C8.47748 17.4999 7.06561 17.0465 5.88059 16.2623L4.22504 18.7641ZM2.04905 20.0476L5.50934 18.942L4.59628 16.0844L1.13599 17.19L2.04905 20.0476ZM1.29213 14.7979L0.170405 18.1417L3.01463 19.0959L4.13636 15.752L1.29213 14.7979ZM-0.5 9.9998C-0.5 12.2953 0.241504 14.4281 1.50184 16.1582L3.92665 14.3918C3.02835 13.1587 2.5 11.6408 2.5 9.9998H-0.5ZM8.87082 4.99331C8.75771 4.72248 8.53716 4.25603 8.056 3.94121C7.56935 3.6228 7.04752 3.63098 6.9763 3.62809L6.85444 6.62561C6.93164 6.62875 6.88866 6.62977 6.82295 6.6178C6.73081 6.60103 6.57671 6.55842 6.41348 6.45162C6.25494 6.34789 6.16274 6.2326 6.1205 6.17047C6.08394 6.11669 6.08013 6.09577 6.10255 6.14947L8.87082 4.99331ZM9.09224 5.52972C9.00756 5.32429 8.92948 5.13488 8.87246 4.99724L6.10092 6.14553C6.15667 6.2801 6.23353 6.46656 6.31865 6.67304L9.09224 5.52972ZM9.64863 6.86968C9.65604 6.88514 9.64451 6.86027 9.59986 6.75457C9.56293 6.66711 9.51457 6.55129 9.45915 6.41783C9.34847 6.15131 9.21334 5.8235 9.09224 5.52973L6.31865 6.67304C6.54286 7.21698 6.87252 8.01873 6.94372 8.16717L9.64863 6.86968ZM9.6663 8.69287C10.1117 7.82948 9.73124 7.0419 9.64862 6.86967L6.94372 8.16718C6.95145 8.18329 6.90933 8.10418 6.88906 7.96987C6.86531 7.81254 6.87053 7.56879 7.00011 7.31758L9.6663 8.69287ZM9.20332 9.36841C9.33258 9.21903 9.51879 9.00871 9.69046 8.64386L6.97595 7.36658C6.97301 7.37284 6.97451 7.36907 6.98035 7.35908C6.9866 7.3484 6.99342 7.33812 6.99905 7.33033C7.00374 7.32383 7.00395 7.32417 6.99369 7.33654C6.98847 7.34283 6.98146 7.35113 6.97138 7.3629C6.96102 7.37499 6.94971 7.38807 6.93473 7.40538L9.20332 9.36841ZM9.17793 9.39778C9.18632 9.38806 9.19456 9.37853 9.20331 9.36842L6.93474 7.40537C6.92612 7.41532 6.91648 7.42647 6.90642 7.43813L9.17793 9.39778ZM8.96474 9.63143C9.01753 9.57555 9.09608 9.49275 9.1784 9.39723L6.90594 7.43868C6.87503 7.47455 6.8423 7.50953 6.78411 7.57111L8.96474 9.63143ZM8.81842 9.79333C8.85206 9.7516 8.88724 9.71344 8.96474 9.63142L6.78411 7.57112C6.71325 7.64611 6.60059 7.76443 6.48288 7.91045L8.81842 9.79333ZM8.78595 9.83229C8.78794 9.82995 8.79036 9.82711 8.79277 9.82429L6.50852 7.8795C6.50669 7.88164 6.50487 7.88378 6.50261 7.88643L8.78595 9.83229ZM8.84221 8.65973C8.88369 8.73119 8.94281 8.85948 8.96663 9.03693C8.99149 9.2222 8.96973 9.40093 8.91956 9.55521C8.87322 9.69773 8.81157 9.79202 8.78586 9.82876C8.76474 9.85894 8.74794 9.87689 8.78589 9.83236L6.50267 7.88637C6.48184 7.91081 6.20325 8.20726 6.0666 8.62753C5.88789 9.17713 5.98946 9.72099 6.24764 10.1658L8.84221 8.65973ZM10.003 10.1074C9.40358 9.57332 8.96965 8.87504 8.83593 8.64901L6.25392 10.1765C6.42691 10.4689 7.05109 11.4953 8.00733 12.3473L10.003 10.1074ZM11.5968 11.105C11.3247 10.995 10.7414 10.7641 10.002 10.1065L8.00833 12.3482C9.11517 13.3326 10.0566 13.7182 10.4722 13.8862L11.5968 11.105ZM11.6944 11.1449C11.6611 11.131 11.6251 11.1164 11.5968 11.105L10.4722 13.8862C10.5052 13.8996 10.5239 13.9072 10.5382 13.9131L11.6944 11.1449ZM10.6569 11.4027C10.8452 11.2018 11.0731 11.1142 11.2533 11.0897C11.4253 11.0663 11.574 11.0949 11.6916 11.1437L10.541 13.9143C11.153 14.1685 12.139 14.2082 12.8456 13.4544L10.6569 11.4027ZM11.1238 10.7804C10.885 11.1154 10.7423 11.3106 10.6516 11.4084L12.8509 13.4487C13.1043 13.1755 13.3752 12.7904 13.5668 12.5216L11.1238 10.7804ZM11.2357 10.6237C11.1977 10.6767 11.16 10.7296 11.1238 10.7804L13.5668 12.5216C13.6033 12.4703 13.6389 12.4205 13.6743 12.371L11.2357 10.6237ZM13.6301 9.89804C13.3164 9.77965 12.8726 9.68972 12.3771 9.81899C11.8616 9.95349 11.4827 10.2747 11.2307 10.6307L13.6793 12.3639C13.6071 12.4659 13.4318 12.6442 13.1345 12.7218C12.8572 12.7942 12.6462 12.7333 12.5707 12.7048L13.6301 9.89804ZM15.5652 10.8118C15.4272 10.7428 15.0333 10.5478 14.6415 10.3587C14.3048 10.1961 13.8191 9.96327 13.5932 9.88468L12.6076 12.7181C12.5846 12.7101 12.6388 12.7309 12.8165 12.8131C12.9645 12.8815 13.1478 12.9689 13.3372 13.0603C13.7153 13.2429 14.0965 13.4315 14.2229 13.4948L15.5652 10.8118ZM15.6946 10.8749C15.6474 10.8522 15.6075 10.833 15.5658 10.8121L14.2223 13.4945C14.2887 13.5277 14.3493 13.5569 14.3947 13.5787L15.6946 10.8749ZM16.6992 11.7161C16.4902 11.3503 16.1972 11.1527 16.0565 11.066C15.9161 10.9794 15.7603 10.9065 15.6946 10.8749L14.3947 13.5787C14.4436 13.6021 14.4696 13.6147 14.49 13.6251C14.51 13.6353 14.5027 13.6323 14.4824 13.6198C14.4626 13.6076 14.4071 13.5722 14.3393 13.5108C14.2687 13.4469 14.1757 13.3467 14.0942 13.2042L16.6992 11.7161ZM16.6576 14.2088C16.8091 13.7802 16.8897 13.3712 16.9197 13.0253C16.9345 12.8539 16.9388 12.6761 16.9259 12.504C16.9189 12.4102 16.8951 12.0583 16.6984 11.7148L14.095 13.2055C14.0388 13.1074 14.0062 13.0228 13.9882 12.97C13.9692 12.9143 13.9579 12.8686 13.9513 12.838C13.9384 12.7787 13.9351 12.7388 13.9343 12.7276C13.9325 12.7043 13.9352 12.7166 13.9308 12.7667C13.9224 12.864 13.8946 13.0238 13.8291 13.2091L16.6576 14.2088ZM13.7919 16.4452C14.331 16.3291 14.8955 16.0862 15.3764 15.7611C15.8303 15.4542 16.3967 14.9467 16.6575 14.209L13.8292 13.2089C13.8559 13.1332 13.8821 13.1145 13.8554 13.1442C13.8307 13.1718 13.7796 13.2193 13.6961 13.2758C13.5196 13.3951 13.309 13.4804 13.1603 13.5124L13.7919 16.4452ZM9.7485 15.6874C10.832 16.1363 11.6262 16.3797 12.2635 16.4808C12.965 16.5921 13.4287 16.5227 13.7892 16.4458L13.163 13.5119C13.0526 13.5354 12.974 13.556 12.7337 13.5179C12.4292 13.4696 11.882 13.3241 10.8968 12.9159L9.7485 15.6874ZM4.6611 11.2737C4.98684 11.7459 6.84626 14.4856 9.74878 15.6875L10.8965 12.9158C8.8984 12.0883 7.4729 10.0665 7.13049 9.57012L4.6611 11.2737ZM4.64606 11.2505C4.64075 11.2435 4.63676 11.2381 4.63452 11.235C4.63218 11.2318 4.6306 11.2296 4.63 11.2288C4.62898 11.2273 4.62949 11.228 4.63234 11.2321C4.63503 11.236 4.63866 11.2412 4.64369 11.2485C4.64871 11.2557 4.65433 11.2639 4.6611 11.2737L7.13049 9.57012C7.11734 9.55105 7.07233 9.48503 7.0362 9.4374L4.64606 11.2505ZM4.6172 11.2114C4.62279 11.219 4.62559 11.2228 4.62757 11.2256L7.0547 9.46232C7.04924 9.45481 7.04321 9.44656 7.03864 9.44032L4.6172 11.2114ZM3.27242 7.62952C3.27242 8.58559 3.60272 9.44317 3.89387 10.029C4.19462 10.6342 4.51909 11.0772 4.61721 11.2114L7.03864 9.44031C6.96867 9.34465 6.76539 9.06613 6.58041 8.69391C6.38582 8.30237 6.27242 7.92669 6.27242 7.62952H3.27242ZM4.60067 4.41057C4.23272 4.7845 3.27242 5.77819 3.27242 7.62952H6.27242C6.27242 7.26434 6.35892 7.03778 6.43552 6.89658C6.51852 6.74357 6.61497 6.64079 6.73903 6.51471L4.60067 4.41057ZM4.6217 4.38918C4.61553 4.39547 4.60888 4.40223 4.60068 4.41057L6.73903 6.51472C6.74684 6.50678 6.75565 6.49783 6.76431 6.48899L4.6217 4.38918ZM6.61374 3.6164C6.05418 3.6164 5.22801 3.76826 4.6198 4.39112L6.76621 6.48705C6.66701 6.58864 6.58325 6.61639 6.57642 6.61865C6.56613 6.62205 6.58094 6.6164 6.61374 6.6164V3.6164ZM7.0118 3.62995C6.88175 3.62157 6.75148 3.61706 6.62116 3.61641L6.60631 6.61638C6.67725 6.61673 6.74816 6.61919 6.81895 6.62375L7.0118 3.62995Z" fill="#336A30" mask="url(#path-1-inside-1_5059_25189)"/>
</g>
</g>
</svg>
