<svg width="19" height="18" viewBox="0 0 19 18" fill="none" xmlns="http://www.w3.org/2000/svg">
<path d="M5.9707 7.5H4.9707C4.68737 7.5 4.44987 7.40417 4.2582 7.2125C4.06654 7.02083 3.9707 6.78333 3.9707 6.5C3.9707 6.21667 4.06654 5.97917 4.2582 5.7875C4.44987 5.59583 4.68737 5.5 4.9707 5.5H5.9707V4.5C5.9707 4.21667 6.06654 3.97917 6.2582 3.7875C6.44987 3.59583 6.68737 3.5 6.9707 3.5C7.25404 3.5 7.49154 3.59583 7.6832 3.7875C7.87487 3.97917 7.9707 4.21667 7.9707 4.5V5.5H8.9707C9.25404 5.5 9.49154 5.59583 9.6832 5.7875C9.87487 5.97917 9.9707 6.21667 9.9707 6.5C9.9707 6.78333 9.87487 7.02083 9.6832 7.2125C9.49154 7.40417 9.25404 7.5 8.9707 7.5H7.9707V8.5C7.9707 8.78333 7.87487 9.02083 7.6832 9.2125C7.49154 9.40417 7.25404 9.5 6.9707 9.5C6.68737 9.5 6.44987 9.40417 6.2582 9.2125C6.06654 9.02083 5.9707 8.78333 5.9707 8.5V7.5ZM6.9707 13C5.15404 13 3.61654 12.3708 2.3582 11.1125C1.09987 9.85417 0.470703 8.31667 0.470703 6.5C0.470703 4.68333 1.09987 3.14583 2.3582 1.8875C3.61654 0.629167 5.15404 0 6.9707 0C8.78737 0 10.3249 0.629167 11.5832 1.8875C12.8415 3.14583 13.4707 4.68333 13.4707 6.5C13.4707 7.23333 13.354 7.925 13.1207 8.575C12.8874 9.225 12.5707 9.8 12.1707 10.3L17.7707 15.9C17.954 16.0833 18.0457 16.3167 18.0457 16.6C18.0457 16.8833 17.954 17.1167 17.7707 17.3C17.5874 17.4833 17.354 17.575 17.0707 17.575C16.7874 17.575 16.554 17.4833 16.3707 17.3L10.7707 11.7C10.2707 12.1 9.6957 12.4167 9.0457 12.65C8.3957 12.8833 7.70404 13 6.9707 13ZM6.9707 11C8.2207 11 9.2832 10.5625 10.1582 9.6875C11.0332 8.8125 11.4707 7.75 11.4707 6.5C11.4707 5.25 11.0332 4.1875 10.1582 3.3125C9.2832 2.4375 8.2207 2 6.9707 2C5.7207 2 4.6582 2.4375 3.7832 3.3125C2.9082 4.1875 2.4707 5.25 2.4707 6.5C2.4707 7.75 2.9082 8.8125 3.7832 9.6875C4.6582 10.5625 5.7207 11 6.9707 11Z" fill="#455A64"/>
</svg>
