<svg width="24" height="22" viewBox="0 0 24 22" fill="none" xmlns="http://www.w3.org/2000/svg">
<mask id="mask0_1460_81178" style="mask-type:alpha" maskUnits="userSpaceOnUse" x="0" y="0" width="24" height="22">
<rect width="24" height="21.3333" fill="#D9D9D9"/>
</mask>
<g mask="url(#mask0_1460_81178)">
<path d="M5.99997 18.6667C4.99997 18.6667 4.20414 18.3222 3.61247 17.6333C3.02081 16.9444 2.84997 16.1778 3.09997 15.3333L4.89997 9.28888C4.34997 8.97777 3.89581 8.55555 3.53747 8.02221C3.17914 7.48888 2.99997 6.88888 2.99997 6.22221C2.99997 5.24444 3.39164 4.4074 4.17497 3.7111C4.95831 3.01481 5.89997 2.66666 6.99997 2.66666H15C15.75 2.66666 16.3166 2.94814 16.7 3.5111C17.0833 4.07407 17.1083 4.65184 16.775 5.24444L14.775 8.79999C14.5916 9.09629 14.3458 9.33333 14.0375 9.5111C13.7291 9.68888 13.3833 9.77777 13 9.77777H10.975L10.7 10.6667H11C11.2833 10.6667 11.5208 10.7518 11.7125 10.9222C11.9041 11.0926 12 11.3037 12 11.5555V13.3333C12 13.5852 11.9041 13.7963 11.7125 13.9667C11.5208 14.137 11.2833 14.2222 11 14.2222H9.64997L8.89997 16.7111C8.71664 17.2889 8.35831 17.7593 7.82497 18.1222C7.29164 18.4852 6.68331 18.6667 5.99997 18.6667ZM5.99997 16.8889C6.23331 16.8889 6.43331 16.8296 6.59997 16.7111C6.76664 16.5926 6.88331 16.437 6.94997 16.2444L8.89997 9.77777H6.82497L5.02497 15.7778C4.94164 16.0593 4.99997 16.3148 5.19997 16.5444C5.39997 16.7741 5.66664 16.8889 5.99997 16.8889ZM6.99997 7.99999H13L15 4.44444H6.99997C6.44997 4.44444 5.97914 4.61851 5.58747 4.96666C5.19581 5.31481 4.99997 5.73332 4.99997 6.22221C4.99997 6.7111 5.19581 7.12962 5.58747 7.47777C5.97914 7.82592 6.44997 7.99999 6.99997 7.99999ZM21.925 3.26666L19.675 4.17777C19.4916 4.25184 19.3041 4.25555 19.1125 4.18888C18.9208 4.12221 18.7833 4.0074 18.7 3.84444C18.6166 3.68147 18.6083 3.51481 18.675 3.34444C18.7416 3.17407 18.8666 3.05184 19.05 2.97777L21.3 2.06666C21.4833 1.99258 21.675 1.98888 21.875 2.05555C22.075 2.12221 22.2166 2.23703 22.3 2.39999C22.3833 2.56295 22.3875 2.72962 22.3125 2.89999C22.2375 3.07036 22.1083 3.19258 21.925 3.26666ZM19.075 9.48888C18.8916 9.41481 18.7583 9.28888 18.675 9.1111C18.5916 8.93333 18.5916 8.76296 18.675 8.59999C18.7583 8.42221 18.9 8.3037 19.1 8.24444C19.3 8.18518 19.5 8.19258 19.7 8.26666L21.95 9.19999C22.1333 9.27407 22.2583 9.39629 22.325 9.56666C22.3916 9.73703 22.3833 9.9037 22.3 10.0667C22.2166 10.2296 22.0791 10.3444 21.8875 10.4111C21.6958 10.4778 21.5083 10.4741 21.325 10.4L19.075 9.48888ZM22.25 6.88888H19.75C19.5333 6.88888 19.3541 6.82592 19.2125 6.69999C19.0708 6.57407 19 6.41481 19 6.22221C19 6.02962 19.0708 5.87036 19.2125 5.74444C19.3541 5.61851 19.5333 5.55555 19.75 5.55555H22.25C22.4666 5.55555 22.6458 5.61851 22.7875 5.74444C22.9291 5.87036 23 6.02962 23 6.22221C23 6.41481 22.9291 6.57407 22.7875 6.69999C22.6458 6.82592 22.4666 6.88888 22.25 6.88888Z" fill="#90A4AE"/>
</g>
</svg>
