<svg width="24" height="22" viewBox="0 0 24 22" fill="none" xmlns="http://www.w3.org/2000/svg">
<g id="receipt_long">
<mask id="mask0_526_18816" style="mask-type:alpha" maskUnits="userSpaceOnUse" x="0" y="0" width="24" height="22">
<rect id="Bounding box" width="24" height="21.3333" fill="#D9D9D9"/>
</mask>
<g mask="url(#mask0_526_18816)">
<path id="vector" d="M6 19.5556C5.16667 19.5556 4.45833 19.2963 3.875 18.7778C3.29167 18.2593 3 17.6296 3 16.8889V15.1111C3 14.8593 3.09583 14.6482 3.2875 14.4778C3.47917 14.3074 3.71667 14.2222 4 14.2222H6V2.42223C6 2.2889 6.06667 2.20742 6.2 2.17779C6.33333 2.14816 6.46667 2.1926 6.6 2.31112L7.5 3.11112L8.65 2.0889C8.75 2.00001 8.86667 1.95557 9 1.95557C9.13333 1.95557 9.25 2.00001 9.35 2.0889L10.5 3.11112L11.65 2.0889C11.75 2.00001 11.8667 1.95557 12 1.95557C12.1333 1.95557 12.25 2.00001 12.35 2.0889L13.5 3.11112L14.65 2.0889C14.75 2.00001 14.8667 1.95557 15 1.95557C15.1333 1.95557 15.25 2.00001 15.35 2.0889L16.5 3.11112L17.65 2.0889C17.75 2.00001 17.8667 1.95557 18 1.95557C18.1333 1.95557 18.25 2.00001 18.35 2.0889L19.5 3.11112L20.4 2.31112C20.5333 2.1926 20.6667 2.14446 20.8 2.16668C20.9333 2.1889 21 2.27408 21 2.42223V16.8889C21 17.6296 20.7083 18.2593 20.125 18.7778C19.5417 19.2963 18.8333 19.5556 18 19.5556H6ZM18 17.7778C18.2833 17.7778 18.5208 17.6926 18.7125 17.5222C18.9042 17.3519 19 17.1408 19 16.8889V4.44446H8V14.2222H16C16.2833 14.2222 16.5208 14.3074 16.7125 14.4778C16.9042 14.6482 17 14.8593 17 15.1111V16.8889C17 17.1408 17.0958 17.3519 17.2875 17.5222C17.4792 17.6926 17.7167 17.7778 18 17.7778ZM9.975 8.00001C9.69167 8.00001 9.45833 7.91483 9.275 7.74446C9.09167 7.57409 9 7.36297 9 7.11112C9 6.85927 9.09583 6.64816 9.2875 6.47779C9.47917 6.30742 9.71667 6.22223 10 6.22223H14C14.2833 6.22223 14.5208 6.30742 14.7125 6.47779C14.9042 6.64816 15 6.85927 15 7.11112C15 7.36297 14.9042 7.57409 14.7125 7.74446C14.5208 7.91483 14.2833 8.00001 14 8.00001H9.975ZM9.975 10.6667C9.69167 10.6667 9.45833 10.5815 9.275 10.4111C9.09167 10.2408 9 10.0296 9 9.77779C9 9.52594 9.09583 9.31483 9.2875 9.14446C9.47917 8.97409 9.71667 8.8889 10 8.8889H14C14.2833 8.8889 14.5208 8.97409 14.7125 9.14446C14.9042 9.31483 15 9.52594 15 9.77779C15 10.0296 14.9042 10.2408 14.7125 10.4111C14.5208 10.5815 14.2833 10.6667 14 10.6667H9.975ZM17 8.00001C16.7167 8.00001 16.4792 7.91483 16.2875 7.74446C16.0958 7.57409 16 7.36297 16 7.11112C16 6.85927 16.0958 6.64816 16.2875 6.47779C16.4792 6.30742 16.7167 6.22223 17 6.22223C17.2833 6.22223 17.5208 6.30742 17.7125 6.47779C17.9042 6.64816 18 6.85927 18 7.11112C18 7.36297 17.9042 7.57409 17.7125 7.74446C17.5208 7.91483 17.2833 8.00001 17 8.00001ZM17 10.6667C16.7167 10.6667 16.4792 10.5815 16.2875 10.4111C16.0958 10.2408 16 10.0296 16 9.77779C16 9.52594 16.0958 9.31483 16.2875 9.14446C16.4792 8.97409 16.7167 8.8889 17 8.8889C17.2833 8.8889 17.5208 8.97409 17.7125 9.14446C17.9042 9.31483 18 9.52594 18 9.77779C18 10.0296 17.9042 10.2408 17.7125 10.4111C17.5208 10.5815 17.2833 10.6667 17 10.6667ZM6 17.7778H15V16H5V16.8889C5 17.1408 5.09583 17.3519 5.2875 17.5222C5.47917 17.6926 5.71667 17.7778 6 17.7778Z" fill="white"/>
</g>
</g>
</svg>
