<svg xmlns="http://www.w3.org/2000/svg" width="22" height="22" viewBox="0 0 22 22" fill="none">
  <path d="M5.63038 14.475C5.84038 15.195 6.16663 15.7762 6.60913 16.2188C7.05163 16.6612 7.62538 16.965 8.33038 17.13V17.5125C8.33038 17.7225 8.40913 17.9063 8.56663 18.0638C8.72413 18.2213 8.90788 18.3 9.11788 18.3C9.32788 18.3 9.51163 18.2213 9.66913 18.0638C9.82663 17.9063 9.90538 17.7225 9.90538 17.5125V17.175C10.6554 17.04 11.3004 16.7475 11.8404 16.2975C12.3804 15.8475 12.6504 15.18 12.6504 14.295C12.6504 13.665 12.4704 13.0875 12.1104 12.5625C11.7504 12.0375 11.0304 11.58 9.95038 11.19C9.05038 10.89 8.42788 10.6275 8.08288 10.4025C7.73788 10.1775 7.56538 9.87 7.56538 9.48C7.56538 9.09 7.70413 8.7825 7.98163 8.5575C8.25913 8.3325 8.66038 8.22 9.18538 8.22C9.66538 8.22 10.0404 8.33625 10.3104 8.56875C10.5804 8.80125 10.7754 9.09 10.8954 9.435L12.3354 8.85C12.1704 8.325 11.8666 7.8675 11.4241 7.4775C10.9816 7.0875 10.4904 6.87 9.95038 6.825V6.4875C9.95038 6.2775 9.87163 6.09375 9.71413 5.93625C9.55663 5.77875 9.37288 5.7 9.16288 5.7C8.95288 5.7 8.76913 5.77875 8.61163 5.93625C8.45413 6.09375 8.37538 6.2775 8.37538 6.4875V6.825C7.62538 6.99 7.04038 7.32 6.62038 7.815C6.20038 8.31 5.99038 8.865 5.99038 9.48C5.99038 10.185 6.19663 10.755 6.60913 11.19C7.02163 11.625 7.67038 12 8.55538 12.315C9.50038 12.66 10.1566 12.9675 10.5241 13.2375C10.8916 13.5075 11.0754 13.86 11.0754 14.295C11.0754 14.79 10.8991 15.1537 10.5466 15.3862C10.1941 15.6187 9.77038 15.735 9.27538 15.735C8.78038 15.735 8.34163 15.5812 7.95913 15.2737C7.57663 14.9662 7.29538 14.505 7.11538 13.89L5.63038 14.475ZM9.14038 21C7.89538 21 6.72538 20.7638 5.63038 20.2912C4.53538 19.8187 3.58288 19.1775 2.77288 18.3675C1.96288 17.5575 1.32163 16.605 0.849131 15.51C0.376631 14.415 0.140381 13.245 0.140381 12C0.140381 10.755 0.376631 9.585 0.849131 8.49C1.32163 7.395 1.96288 6.4425 2.77288 5.6325C3.58288 4.8225 4.53538 4.18125 5.63038 3.70875C6.72538 3.23625 7.89538 3 9.14038 3C10.3854 3 11.5554 3.23625 12.6504 3.70875C13.7454 4.18125 14.6979 4.8225 15.5079 5.6325C16.3179 6.4425 16.9591 7.395 17.4316 8.49C17.9041 9.585 18.1404 10.755 18.1404 12C18.1404 13.245 17.9041 14.415 17.4316 15.51C16.9591 16.605 16.3179 17.5575 15.5079 18.3675C14.6979 19.1775 13.7454 19.8187 12.6504 20.2912C11.5554 20.7638 10.3854 21 9.14038 21ZM9.14038 19.2C11.1504 19.2 12.8529 18.5025 14.2479 17.1075C15.6429 15.7125 16.3404 14.01 16.3404 12C16.3404 9.99 15.6429 8.2875 14.2479 6.8925C12.8529 5.4975 11.1504 4.8 9.14038 4.8C7.13038 4.8 5.42788 5.4975 4.03288 6.8925C2.63788 8.2875 1.94038 9.99 1.94038 12C1.94038 14.01 2.63788 15.7125 4.03288 17.1075C5.42788 18.5025 7.13038 19.2 9.14038 19.2Z" fill="#607D8B"/>
  <path d="M15.2854 10.1401L15.6381 9.78571L15.2854 10.1401C15.5165 10.3702 15.8085 10.5 16.1404 10.5C16.4722 10.5 16.7642 10.3702 16.9954 10.1401L16.6426 9.78571L16.9954 10.1401L20.2958 6.85434C20.5306 6.62061 20.6404 6.32213 20.6404 6C20.6404 5.67787 20.5306 5.37939 20.2958 5.14566C20.0612 4.91209 19.7625 4.80357 19.4408 4.80357C19.1192 4.80357 18.8204 4.91209 18.5858 5.14566L17.3579 6.36813V1.71429C17.3579 1.38528 17.2405 1.08615 17.0044 0.851014C16.7683 0.615994 16.4689 0.5 16.1404 0.5C15.8119 0.5 15.5125 0.615994 15.2764 0.851014C15.0402 1.08615 14.9229 1.38528 14.9229 1.71429V6.36813L13.6949 5.14566C13.4603 4.91209 13.1616 4.80357 12.8399 4.80357C12.5183 4.80357 12.2195 4.91209 11.9849 5.14566C11.7501 5.37939 11.6404 5.67787 11.6404 6C11.6404 6.32213 11.7501 6.62061 11.9849 6.85434L15.2854 10.1401Z" fill="#607D8B" stroke="white"/>
</svg>
