<svg xmlns="http://www.w3.org/2000/svg" width="20" height="21" viewBox="0 0 20 21" fill="none">
  <path d="M5.63038 14.4224C5.84038 15.1424 6.16663 15.7236 6.60913 16.1661C7.05163 16.6086 7.62538 16.9124 8.33038 17.0774V17.4599C8.33038 17.6699 8.40913 17.8536 8.56663 18.0111C8.72413 18.1686 8.90788 18.2474 9.11788 18.2474C9.32788 18.2474 9.51163 18.1686 9.66913 18.0111C9.82663 17.8536 9.90538 17.6699 9.90538 17.4599V17.1224C10.6554 16.9874 11.3004 16.6949 11.8404 16.2449C12.3804 15.7949 12.6504 15.1274 12.6504 14.2424C12.6504 13.6124 12.4704 13.0349 12.1104 12.5099C11.7504 11.9849 11.0304 11.5274 9.95038 11.1374C9.05038 10.8374 8.42788 10.5749 8.08288 10.3499C7.73788 10.1249 7.56538 9.81739 7.56538 9.42739C7.56538 9.03739 7.70413 8.72989 7.98163 8.50489C8.25913 8.27989 8.66038 8.16739 9.18538 8.16739C9.66538 8.16739 10.0404 8.28364 10.3104 8.51614C10.5804 8.74864 10.7754 9.03739 10.8954 9.38239L12.3354 8.79739C12.1704 8.27239 11.8666 7.81489 11.4241 7.42489C10.9816 7.03489 10.4904 6.81739 9.95038 6.77239V6.43489C9.95038 6.22489 9.87163 6.04114 9.71413 5.88364C9.55663 5.72614 9.37288 5.64739 9.16288 5.64739C8.95288 5.64739 8.76913 5.72614 8.61163 5.88364C8.45413 6.04114 8.37538 6.22489 8.37538 6.43489V6.77239C7.62538 6.93739 7.04038 7.26739 6.62038 7.76239C6.20038 8.25739 5.99038 8.81239 5.99038 9.42739C5.99038 10.1324 6.19663 10.7024 6.60913 11.1374C7.02163 11.5724 7.67038 11.9474 8.55538 12.2624C9.50038 12.6074 10.1566 12.9149 10.5241 13.1849C10.8916 13.4549 11.0754 13.8074 11.0754 14.2424C11.0754 14.7374 10.8991 15.1011 10.5466 15.3336C10.1941 15.5661 9.77038 15.6824 9.27538 15.6824C8.78038 15.6824 8.34163 15.5286 7.95913 15.2211C7.57663 14.9136 7.29538 14.4524 7.11538 13.8374L5.63038 14.4224ZM9.14038 20.9474C7.89538 20.9474 6.72538 20.7111 5.63038 20.2386C4.53538 19.7661 3.58288 19.1249 2.77288 18.3149C1.96288 17.5049 1.32163 16.5524 0.849131 15.4574C0.376631 14.3624 0.140381 13.1924 0.140381 11.9474C0.140381 10.7024 0.376631 9.53239 0.849131 8.43739C1.32163 7.34239 1.96288 6.38989 2.77288 5.57989C3.58288 4.76989 4.53538 4.12864 5.63038 3.65614C6.72538 3.18364 7.89538 2.94739 9.14038 2.94739C10.3854 2.94739 11.5554 3.18364 12.6504 3.65614C13.7454 4.12864 14.6979 4.76989 15.5079 5.57989C16.3179 6.38989 16.9591 7.34239 17.4316 8.43739C17.9041 9.53239 18.1404 10.7024 18.1404 11.9474C18.1404 13.1924 17.9041 14.3624 17.4316 15.4574C16.9591 16.5524 16.3179 17.5049 15.5079 18.3149C14.6979 19.1249 13.7454 19.7661 12.6504 20.2386C11.5554 20.7111 10.3854 20.9474 9.14038 20.9474ZM9.14038 19.1474C11.1504 19.1474 12.8529 18.4499 14.2479 17.0549C15.6429 15.6599 16.3404 13.9574 16.3404 11.9474C16.3404 9.93739 15.6429 8.23489 14.2479 6.83989C12.8529 5.44489 11.1504 4.74739 9.14038 4.74739C7.13038 4.74739 5.42788 5.44489 4.03288 6.83989C2.63788 8.23489 1.94038 9.93739 1.94038 11.9474C1.94038 13.9574 2.63788 15.6599 4.03288 17.0549C5.42788 18.4499 7.13038 19.1474 9.14038 19.1474Z" fill="#607D8B"/>
  <path d="M15.7788 4.64657L17.0059 5.87373C17.2404 6.1082 17.5394 6.21749 17.8617 6.21749C18.1841 6.21749 18.4831 6.1082 18.7175 5.87373C18.952 5.63926 19.0613 5.34029 19.0613 5.01794C19.0613 4.69559 18.952 4.39661 18.7175 4.16214L15.4171 0.861693C15.1861 0.63074 14.8939 0.5 14.5613 0.5C14.2287 0.5 13.9364 0.63074 13.7055 0.861693L14.0485 1.20475L13.7055 0.861693L10.405 4.16214C10.1706 4.39661 10.0613 4.69559 10.0613 5.01794C10.0613 5.34029 10.1706 5.63926 10.405 5.87373C10.6395 6.1082 10.9385 6.21749 11.2608 6.21749C11.5832 6.21749 11.8822 6.1082 12.1166 5.87373L13.3438 4.64657V9.32287C13.3438 9.65208 13.4606 9.95172 13.6965 10.1876C13.9324 10.4235 14.2321 10.5404 14.5613 10.5404C14.8905 10.5404 15.1901 10.4235 15.426 10.1876C15.662 9.95172 15.7788 9.65208 15.7788 9.32287V4.64657Z" fill="#607D8B" stroke="white"/>
</svg>
