<svg width="24" height="25" viewBox="0 0 24 25" fill="none" xmlns="http://www.w3.org/2000/svg">
<mask id="mask0_2147_37755" style="mask-type:alpha" maskUnits="userSpaceOnUse" x="0" y="0" width="24" height="25">
<rect y="0.945801" width="24" height="23.7827" fill="#D9D9D9"/>
</mask>
<g mask="url(#mask0_2147_37755)">
<path d="M10.875 20.0711L4.275 13.5308C4.175 13.4317 4.10417 13.3244 4.0625 13.2088C4.02083 13.0932 4 12.9693 4 12.8372C4 12.705 4.02083 12.5812 4.0625 12.4656C4.10417 12.3499 4.175 12.2426 4.275 12.1435L10.875 5.60326C11.0583 5.42159 11.2875 5.32662 11.5625 5.31837C11.8375 5.31011 12.075 5.40507 12.275 5.60326C12.475 5.78494 12.5792 6.01203 12.5875 6.28454C12.5958 6.55705 12.5 6.7924 12.3 6.99059L7.4 11.8462H18.575C18.8583 11.8462 19.0958 11.9412 19.2875 12.1311C19.4792 12.321 19.575 12.5564 19.575 12.8372C19.575 13.1179 19.4792 13.3533 19.2875 13.5432C19.0958 13.7331 18.8583 13.8281 18.575 13.8281H7.4L12.3 18.6837C12.4833 18.8654 12.5792 19.0966 12.5875 19.3774C12.5958 19.6582 12.5 19.8894 12.3 20.0711C12.1167 20.2692 11.8833 20.3683 11.6 20.3683C11.3167 20.3683 11.075 20.2692 10.875 20.0711Z" fill="#607D8B"/>
</g>
</svg>
