<svg width="24" height="24" viewBox="0 0 24 24" fill="none" xmlns="http://www.w3.org/2000/svg">
<mask id="mask0_2147_37522" style="mask-type:alpha" maskUnits="userSpaceOnUse" x="0" y="0" width="24" height="24">
<rect width="24" height="24" fill="#D9D9D9"/>
</mask>
<g mask="url(#mask0_2147_37522)">
<path d="M10 9.75L11.325 9.1C11.5417 9 11.7667 8.95 12 8.95C12.2333 8.95 12.4583 9 12.675 9.1L14 9.75V5H10V9.75ZM8 17C7.71667 17 7.47917 16.9042 7.2875 16.7125C7.09583 16.5208 7 16.2833 7 16C7 15.7167 7.09583 15.4792 7.2875 15.2875C7.47917 15.0958 7.71667 15 8 15H11C11.2833 15 11.5208 15.0958 11.7125 15.2875C11.9042 15.4792 12 15.7167 12 16C12 16.2833 11.9042 16.5208 11.7125 16.7125C11.5208 16.9042 11.2833 17 11 17H8ZM5 21C4.45 21 3.97917 20.8042 3.5875 20.4125C3.19583 20.0208 3 19.55 3 19V5C3 4.45 3.19583 3.97917 3.5875 3.5875C3.97917 3.19583 4.45 3 5 3H19C19.55 3 20.0208 3.19583 20.4125 3.5875C20.8042 3.97917 21 4.45 21 5V19C21 19.55 20.8042 20.0208 20.4125 20.4125C20.0208 20.8042 19.55 21 19 21H5ZM5 19H19V5H16V11.375C16 11.7583 15.8417 12.0458 15.525 12.2375C15.2083 12.4292 14.8833 12.4417 14.55 12.275L12 11L9.45 12.275C9.11667 12.4417 8.79167 12.4292 8.475 12.2375C8.15833 12.0458 8 11.7583 8 11.375V5H5V19Z" fill="#607D8B"/>
</g>
</svg>
