<svg xmlns="http://www.w3.org/2000/svg" width="25" height="24" viewBox="0 0 25 24" fill="none">
  <mask id="mask0_8060_30109" style="mask-type:alpha" maskUnits="userSpaceOnUse" x="0" y="0" width="25" height="24">
    <rect x="0.140381" width="24" height="24" fill="#D9D9D9"/>
  </mask>
  <g mask="url(#mask0_8060_30109)">
    <path d="M1.14038 21V16H3.14038V19H6.14038V21H1.14038ZM18.1404 21V19H21.1404V16H23.1404V21H18.1404ZM4.14038 18V6H6.14038V18H4.14038ZM7.14038 18V6H8.14038V18H7.14038ZM10.1404 18V6H12.1404V18H10.1404ZM13.1404 18V6H16.1404V18H13.1404ZM17.1404 18V6H18.1404V18H17.1404ZM19.1404 18V6H20.1404V18H19.1404ZM1.14038 8V3H6.14038V5H3.14038V8H1.14038ZM21.1404 8V5H18.1404V3H23.1404V8H21.1404Z" fill="#607D8B"/>
  </g>
</svg>
