<svg width="24" height="24" viewBox="0 0 24 24" fill="none" xmlns="http://www.w3.org/2000/svg">
<mask id="mask0_2147_37603" style="mask-type:alpha" maskUnits="userSpaceOnUse" x="0" y="0" width="24" height="24">
<rect width="24" height="24" fill="#D9D9D9"/>
</mask>
<g mask="url(#mask0_2147_37603)">
<path d="M10.6 16.95C11.25 17.4833 11.9542 17.6125 12.7125 17.3375C13.4708 17.0625 13.9 16.5 14 15.65C14.0833 14.8667 13.8417 14.2875 13.275 13.9125C12.7083 13.5375 12.2833 13.05 12 12.45C11.9167 12.6833 11.875 12.9 11.875 13.1C11.875 13.3 11.9 13.5167 11.95 13.75C12 14.0333 12.0583 14.3 12.125 14.55C12.1917 14.8 12.2 15.0667 12.15 15.35C12.0667 15.65 11.8833 15.9583 11.6 16.275C11.3167 16.5917 10.9833 16.8167 10.6 16.95ZM4 22C3.45 22 2.97917 21.8042 2.5875 21.4125C2.19583 21.0208 2 20.55 2 20V4C2 3.45 2.19583 2.97917 2.5875 2.5875C2.97917 2.19583 3.45 2 4 2H20C20.55 2 21.0208 2.19583 21.4125 2.5875C21.8042 2.97917 22 3.45 22 4V20C22 20.55 21.8042 21.0208 21.4125 21.4125C21.0208 21.8042 20.55 22 20 22H4ZM12 18C12.8333 18 13.5417 17.7083 14.125 17.125C14.7083 16.5417 15 15.8333 15 15C15 14.6 14.9167 14.2667 14.75 14C14.5833 13.7333 14.35 13.4833 14.05 13.25C13.4167 12.8 12.8875 12.3292 12.4625 11.8375C12.0375 11.3458 11.7 10.85 11.45 10.35C10.7167 10.9333 10.125 11.5958 9.675 12.3375C9.225 13.0792 9 13.95 9 14.95C9 15.5333 9.3 16.1875 9.9 16.9125C10.5 17.6375 11.2 18 12 18ZM4 20H6V19C6 18.7167 6.09583 18.4792 6.2875 18.2875C6.47917 18.0958 6.71667 18 7 18H8.25C7.86667 17.5167 7.5625 17.0083 7.3375 16.475C7.1125 15.9417 7 15.4333 7 14.95C7 13.5167 7.325 12.2292 7.975 11.0875C8.625 9.94583 9.98333 8.76667 12.05 7.55C12.3 7.4 12.5 7.37083 12.65 7.4625C12.8 7.55417 12.8917 7.76667 12.925 8.1C12.975 8.7 13.1833 9.30417 13.55 9.9125C13.9167 10.5208 14.45 11.0833 15.15 11.6C15.7 12 16.1458 12.4708 16.4875 13.0125C16.8292 13.5542 17 14.2167 17 15C17 15.5833 16.9083 16.1208 16.725 16.6125C16.5417 17.1042 16.3 17.5667 16 18H17C17.2833 18 17.5208 18.0958 17.7125 18.2875C17.9042 18.4792 18 18.7167 18 19V20H20V4H4V20Z" fill="#607D8B"/>
</g>
</svg>
