<svg width="20" height="20" viewBox="0 0 20 20" fill="none" xmlns="http://www.w3.org/2000/svg">
<mask id="mask0_2193_37526" style="mask-type:alpha" maskUnits="userSpaceOnUse" x="0" y="0" width="20" height="20">
<rect width="20" height="20" fill="#D9D9D9"/>
</mask>
<g mask="url(#mask0_2193_37526)">
<path d="M4.99984 10.8334C4.76373 10.8334 4.56581 10.7536 4.40609 10.5938C4.24637 10.4341 4.1665 10.2362 4.1665 10.0001C4.1665 9.76397 4.24637 9.56605 4.40609 9.40633C4.56581 9.24661 4.76373 9.16675 4.99984 9.16675H14.9998C15.2359 9.16675 15.4339 9.24661 15.5936 9.40633C15.7533 9.56605 15.8332 9.76397 15.8332 10.0001C15.8332 10.2362 15.7533 10.4341 15.5936 10.5938C15.4339 10.7536 15.2359 10.8334 14.9998 10.8334H4.99984Z" fill="#CFD8DC"/>
</g>
</svg>
