<svg width="24" height="24" viewBox="0 0 24 24" fill="none" xmlns="http://www.w3.org/2000/svg">
<mask id="mask0_2147_19755" style="mask-type:alpha" maskUnits="userSpaceOnUse" x="0" y="0" width="24" height="24">
<rect width="24" height="24" fill="#D9D9D9"/>
</mask>
<g mask="url(#mask0_2147_19755)">
<path d="M19 8C18.7167 8 18.4792 7.90417 18.2875 7.7125C18.0958 7.52083 18 7.28333 18 7C18 6.86667 18.0292 6.7375 18.0875 6.6125C18.1458 6.4875 18.2167 6.38333 18.3 6.3C18.5 6.1 18.9583 5.875 19.675 5.625L20.75 5.25C20.6167 5.63333 20.4917 5.99167 20.375 6.325C20.275 6.60833 20.1625 6.88333 20.0375 7.15C19.9125 7.41667 19.8 7.6 19.7 7.7C19.6167 7.78333 19.5125 7.85417 19.3875 7.9125C19.2625 7.97083 19.1333 8 19 8ZM4 21C3.45 21 2.97917 20.8042 2.5875 20.4125C2.19583 20.0208 2 19.55 2 19V5C2 4.45 2.19583 3.97917 2.5875 3.5875C2.97917 3.19583 3.45 3 4 3H10C10.55 3 11.0208 3.19583 11.4125 3.5875C11.8042 3.97917 12 4.45 12 5V13.175C12.15 13.125 12.3083 13.0833 12.475 13.05C12.6417 13.0167 12.8167 13 13 13C13.8333 13 14.5417 13.2917 15.125 13.875C15.7083 14.4583 16 15.1667 16 16V18C16 18.2833 16.0958 18.5208 16.2875 18.7125C16.4792 18.9042 16.7167 19 17 19C17.2833 19 17.5208 18.9042 17.7125 18.7125C17.9042 18.5208 18 18.2833 18 18V13H17V11.575C16.1 11.1917 15.375 10.5917 14.825 9.775C14.275 8.95833 14 8.03333 14 7C14 5.61667 14.4875 4.4375 15.4625 3.4625C16.4375 2.4875 17.6167 2 19 2C20.3833 2 21.5625 2.4875 22.5375 3.4625C23.5125 4.4375 24 5.61667 24 7C24 8.03333 23.725 8.95833 23.175 9.775C22.625 10.5917 21.9 11.1917 21 11.575V13H20V18C20 18.8333 19.7083 19.5417 19.125 20.125C18.5417 20.7083 17.8333 21 17 21C16.1667 21 15.4583 20.7083 14.875 20.125C14.2917 19.5417 14 18.8333 14 18V16C14 15.7167 13.9042 15.4792 13.7125 15.2875C13.5208 15.0958 13.2833 15 13 15C12.7167 15 12.4792 15.0958 12.2875 15.2875C12.0958 15.4792 12 15.7167 12 16V19C12 19.55 11.8042 20.0208 11.4125 20.4125C11.0208 20.8042 10.55 21 10 21H4ZM19 10C19.8333 10 20.5417 9.70833 21.125 9.125C21.7083 8.54167 22 7.83333 22 7C22 6.16667 21.7083 5.45833 21.125 4.875C20.5417 4.29167 19.8333 4 19 4C18.1667 4 17.4583 4.29167 16.875 4.875C16.2917 5.45833 16 6.16667 16 7C16 7.83333 16.2917 8.54167 16.875 9.125C17.4583 9.70833 18.1667 10 19 10ZM4 19H10V17L8 19V16.175L10 14.175V12L8 14V11.175L10 9.175V7L8 9V6.175L9.175 5H4.825L6 6.175V9L4 7V9.175L6 11.175V14L4 12V14.175L6 16.175V19L4 17V19Z" fill="#607D8B"/>
</g>
</svg>
